<?xml version="1.0" encoding="UTF-8"?>
<svg xmlns="http://www.w3.org/2000/svg" xmlns:xlink="http://www.w3.org/1999/xlink" width="150px" height="150px" viewBox="0 0 150 150" version="1.1">
<g id="surface1">
<rect x="0" y="0" width="150" height="150" style="fill:rgb(99.607843%,99.607843%,99.215686%);fill-opacity:1;stroke:none;"/>
<path style=" stroke:none;fill-rule:nonzero;fill:rgb(97.254902%,85.490196%,12.941176%);fill-opacity:1;" d="M 103.707031 17.652344 C 101.785156 18.800781 100.757812 23.167969 99.832031 25.125 C 96.742188 31.664062 93.515625 38.15625 90.28125 44.625 C 89.871094 45.445312 85.980469 52.949219 89.203125 52.1875 C 91.332031 51.683594 93.03125 46.382812 94.054688 44.625 C 98.34375 37.261719 104.699219 28.746094 107.253906 20.625 C 107.835938 18.773438 105.554688 16.546875 103.707031 17.652344 M 115.878906 22.925781 C 113.59375 23.839844 111.570312 27.730469 110.089844 29.625 C 105.769531 35.160156 101.21875 40.523438 96.984375 46.125 C 95.765625 47.738281 93.777344 49.441406 93.09375 51.371094 C 92.730469 52.390625 93.28125 53.519531 94.5 53.261719 C 96.855469 52.765625 99.316406 48.5625 100.847656 46.875 C 104.421875 42.933594 107.71875 38.730469 111.390625 34.875 C 113.804688 32.335938 117.417969 29.425781 118.964844 26.25 C 119.8125 24.511719 117.730469 22.1875 115.878906 22.925781 M 111 55.875 L 111.375 57 L 111.75 57 L 111 55.875 M 30 56.25 L 30 57.75 L 30.375 57.75 Z M 30 56.25 "/>
<path style=" stroke:none;fill-rule:nonzero;fill:rgb(78.431373%,3.137255%,3.137255%);fill-opacity:1;" d="M 30.375 56.25 L 30.75 63.375 L 111 63.75 L 111.304688 56.851562 L 106.125 56.25 Z M 30.375 56.25 "/>
<path style=" stroke:none;fill-rule:nonzero;fill:rgb(97.254902%,85.490196%,12.941176%);fill-opacity:1;" d="M 111.375 58.875 L 111.375 61.125 L 111.75 61.125 L 111.375 58.875 M 30.375 60 L 30.375 63.375 L 30.75 63.375 L 30.375 60 M 111 62.25 L 111 63.375 L 111.375 63.375 L 111 62.25 M 31.5 63.375 L 31.5 63.75 L 42 63.75 L 31.5 63.375 M 58.5 63.75 L 58.5 64.125 L 90 64.125 L 80.25 63.75 L 58.5 63.75 M 105 63.75 L 105 64.125 L 111 64.125 L 105 63.75 M 31.875 67.125 L 31.875 67.5 L 39 67.5 Z M 31.875 67.125 "/>
<path style=" stroke:none;fill-rule:nonzero;fill:rgb(15.686275%,26.666667%,51.764706%);fill-opacity:1;" d="M 32 67.75 L 32.125 68 Z M 32 67.75 "/>
<path style=" stroke:none;fill-rule:nonzero;fill:rgb(32.54902%,5.882353%,9.803922%);fill-opacity:1;" d="M 32.25 67.5 C 32.46875 72.242188 35.78125 76.820312 38.378906 80.625 C 39.410156 82.128906 40.621094 84.136719 42.378906 84.847656 C 45.574219 86.136719 49.882812 85.5 53.25 85.5 C 61.261719 85.5 69.226562 85.125 77.25 85.125 L 77.25 84.75 L 54.375 85.125 L 43.875 84.589844 L 37.5 78.75 L 37.875 76.5 L 36.75 76.875 L 33 67.875 L 42 67.875 Z M 32.25 67.5 "/>
<path style=" stroke:none;fill-rule:nonzero;fill:rgb(78.431373%,3.137255%,3.137255%);fill-opacity:1;" d="M 33 67.875 C 33.074219 70.316406 34.921875 76.546875 37.875 76.5 L 37.5 78.75 L 43.128906 84.441406 L 53.625 85.125 L 77.25 84.75 L 77.25 85.125 L 63 85.125 L 63 85.5 L 91.125 85.5 C 93.039062 85.5 99.449219 86.429688 99.75 84 C 104.652344 82.59375 109.167969 72.59375 109.875 67.875 Z M 33 67.875 "/>
<path style=" stroke:none;fill-rule:nonzero;fill:rgb(97.254902%,85.490196%,12.941176%);fill-opacity:1;" d="M 84 67.5 L 84 67.875 L 109.875 67.875 L 101.625 67.5 L 84 67.5 M 32 68.5 L 32.125 68.75 L 32 68.5 M 70.5 68.625 L 68.625 70.875 L 69 73.125 L 67.5 75 C 65.96875 74.773438 65.636719 78.503906 66.1875 79.875 C 67.78125 83.832031 74.597656 84.085938 76 79.875 C 76.238281 79.160156 76.058594 75.304688 75.375 76.875 L 75 76.875 C 74.9375 74.183594 74.230469 71.75 72 70.125 L 71.25 71.25 L 70.5 68.625 M 109.5 69 L 109.875 69.375 Z M 109.5 69 "/>
<path style=" stroke:none;fill-rule:nonzero;fill:rgb(78.431373%,3.137255%,3.137255%);fill-opacity:1;" d="M 32.25 69.375 L 32.625 69.75 Z M 32.25 69.375 "/>
<path style=" stroke:none;fill-rule:nonzero;fill:rgb(97.254902%,85.490196%,12.941176%);fill-opacity:1;" d="M 32.25 69.75 L 32.625 70.125 L 32.25 69.75 M 109.125 70.125 L 109.5 70.5 Z M 109.125 70.125 "/>
<path style=" stroke:none;fill-rule:nonzero;fill:rgb(15.686275%,26.666667%,51.764706%);fill-opacity:1;" d="M 32.625 70.5 L 33 70.875 Z M 32.625 70.5 "/>
<path style=" stroke:none;fill-rule:nonzero;fill:rgb(97.254902%,85.490196%,12.941176%);fill-opacity:1;" d="M 32.625 70.875 L 33 71.25 L 32.625 70.875 M 108.875 71.125 L 109 71.375 Z M 108.875 71.125 "/>
<path style=" stroke:none;fill-rule:nonzero;fill:rgb(15.686275%,26.666667%,51.764706%);fill-opacity:1;" d="M 33 71.25 L 33.375 71.625 Z M 33 71.25 "/>
<path style=" stroke:none;fill-rule:nonzero;fill:rgb(97.254902%,85.490196%,12.941176%);fill-opacity:1;" d="M 33 71.625 L 33.375 72 Z M 33 71.625 "/>
<path style=" stroke:none;fill-rule:nonzero;fill:rgb(32.54902%,5.882353%,9.803922%);fill-opacity:1;" d="M 68.75 72.25 L 68.875 72.5 Z M 68.75 72.25 "/>
<path style=" stroke:none;fill-rule:nonzero;fill:rgb(97.254902%,85.490196%,12.941176%);fill-opacity:1;" d="M 108.375 72 L 108.75 72.375 L 108.375 72 M 33.375 72.375 L 33.75 72.75 Z M 33.375 72.375 "/>
<path style=" stroke:none;fill-rule:nonzero;fill:rgb(78.431373%,3.137255%,3.137255%);fill-opacity:1;" d="M 68.625 72.75 L 69 73.125 Z M 68.625 72.75 "/>
<path style=" stroke:none;fill-rule:nonzero;fill:rgb(97.254902%,85.490196%,12.941176%);fill-opacity:1;" d="M 108 72.75 L 108.375 73.125 L 108 72.75 M 33.75 73.125 L 34.125 73.5 L 33.75 73.125 M 107.625 73.5 L 108 73.875 L 107.625 73.5 M 34.125 73.875 L 34.5 74.25 Z M 34.125 73.875 "/>
<path style=" stroke:none;fill-rule:nonzero;fill:rgb(78.431373%,3.137255%,3.137255%);fill-opacity:1;" d="M 34.5 74.25 L 34.875 74.625 Z M 34.5 74.25 "/>
<path style=" stroke:none;fill-rule:nonzero;fill:rgb(32.54902%,5.882353%,9.803922%);fill-opacity:1;" d="M 67.25 74.5 L 67.375 74.75 Z M 67.25 74.5 "/>
<path style=" stroke:none;fill-rule:nonzero;fill:rgb(97.254902%,85.490196%,12.941176%);fill-opacity:1;" d="M 107.25 74.25 L 107.625 74.625 L 107.25 74.25 M 34.5 74.625 L 34.875 75 L 34.5 74.625 M 106.875 75 L 107.25 75.375 L 106.875 75 M 34.875 75.375 L 35.25 75.75 Z M 34.875 75.375 "/>
<path style=" stroke:none;fill-rule:nonzero;fill:rgb(78.431373%,3.137255%,3.137255%);fill-opacity:1;" d="M 35.25 75.75 L 35.625 76.125 Z M 35.25 75.75 "/>
<path style=" stroke:none;fill-rule:nonzero;fill:rgb(32.54902%,5.882353%,9.803922%);fill-opacity:1;" d="M 75.125 76 L 75.25 76.25 Z M 75.125 76 "/>
<path style=" stroke:none;fill-rule:nonzero;fill:rgb(97.254902%,85.490196%,12.941176%);fill-opacity:1;" d="M 106.5 75.75 L 106.875 76.125 L 106.5 75.75 M 35.25 76.125 L 35.625 76.5 Z M 35.25 76.125 "/>
<path style=" stroke:none;fill-rule:nonzero;fill:rgb(32.54902%,5.882353%,9.803922%);fill-opacity:1;" d="M 66 76.125 L 66.375 76.5 Z M 66 76.125 "/>
<path style=" stroke:none;fill-rule:nonzero;fill:rgb(15.686275%,26.666667%,51.764706%);fill-opacity:1;" d="M 35.625 76.5 L 36 76.875 Z M 35.625 76.5 "/>
<path style=" stroke:none;fill-rule:nonzero;fill:rgb(78.431373%,3.137255%,3.137255%);fill-opacity:1;" d="M 75 76.5 L 75.375 76.875 Z M 75 76.5 "/>
<path style=" stroke:none;fill-rule:nonzero;fill:rgb(97.254902%,85.490196%,12.941176%);fill-opacity:1;" d="M 106.125 76.5 L 106.5 76.875 L 106.125 76.5 M 105.75 76.875 L 106.125 77.25 L 105.75 76.875 M 36 77.25 L 36.375 77.625 Z M 36 77.25 "/>
<path style=" stroke:none;fill-rule:nonzero;fill:rgb(78.431373%,3.137255%,3.137255%);fill-opacity:1;" d="M 36.5 77.5 L 36.625 77.75 Z M 36.5 77.5 "/>
<path style=" stroke:none;fill-rule:nonzero;fill:rgb(97.254902%,85.490196%,12.941176%);fill-opacity:1;" d="M 105.375 77.625 L 105.75 78 L 105.375 77.625 M 36.75 78.375 L 37.125 78.75 L 36.75 78.375 M 105 78.375 L 105.375 78.75 Z M 105 78.375 "/>
<path style=" stroke:none;fill-rule:nonzero;fill:rgb(78.431373%,3.137255%,3.137255%);fill-opacity:1;" d="M 37.125 78.75 L 37.5 79.125 Z M 37.125 78.75 "/>
<path style=" stroke:none;fill-rule:nonzero;fill:rgb(97.254902%,85.490196%,12.941176%);fill-opacity:1;" d="M 104.625 78.75 L 105 79.125 L 104.625 78.75 M 37.125 79.125 L 37.5 79.5 L 37.125 79.125 M 37.5 79.5 L 37.875 79.875 Z M 37.5 79.5 "/>
<path style=" stroke:none;fill-rule:nonzero;fill:rgb(15.686275%,26.666667%,51.764706%);fill-opacity:1;" d="M 37.875 79.875 L 38.25 80.25 Z M 37.875 79.875 "/>
<path style=" stroke:none;fill-rule:nonzero;fill:rgb(97.254902%,85.490196%,12.941176%);fill-opacity:1;" d="M 103.875 79.875 L 104.25 80.25 L 103.875 79.875 M 37.875 80.25 L 38.25 80.625 Z M 37.875 80.25 "/>
<path style=" stroke:none;fill-rule:nonzero;fill:rgb(32.54902%,5.882353%,9.803922%);fill-opacity:1;" d="M 66 80.25 C 66.800781 81.925781 67.988281 82.726562 69.75 83.25 L 69.75 82.875 Z M 66 80.25 "/>
<path style=" stroke:none;fill-rule:nonzero;fill:rgb(78.431373%,3.137255%,3.137255%);fill-opacity:1;" d="M 66.375 80.25 L 66.75 80.625 Z M 66.375 80.25 "/>
<path style=" stroke:none;fill-rule:nonzero;fill:rgb(97.254902%,85.490196%,12.941176%);fill-opacity:1;" d="M 103.5 80.25 L 103.875 80.625 L 103.5 80.25 M 38.25 80.625 L 38.625 81 Z M 38.25 80.625 "/>
<path style=" stroke:none;fill-rule:nonzero;fill:rgb(78.431373%,3.137255%,3.137255%);fill-opacity:1;" d="M 38.625 81 L 39 81.375 L 38.625 81 M 66.75 81 L 67.125 81.375 Z M 66.75 81 "/>
<path style=" stroke:none;fill-rule:nonzero;fill:rgb(97.254902%,85.490196%,12.941176%);fill-opacity:1;" d="M 38.625 81.375 L 39 81.75 Z M 38.625 81.375 "/>
<path style=" stroke:none;fill-rule:nonzero;fill:rgb(78.431373%,3.137255%,3.137255%);fill-opacity:1;" d="M 67.125 81.375 L 67.5 81.75 Z M 67.125 81.375 "/>
<path style=" stroke:none;fill-rule:nonzero;fill:rgb(97.254902%,85.490196%,12.941176%);fill-opacity:1;" d="M 102.75 81.375 L 103.125 81.75 L 102.75 81.375 M 39 81.75 L 39.375 82.125 Z M 39 81.75 "/>
<path style=" stroke:none;fill-rule:nonzero;fill:rgb(78.431373%,3.137255%,3.137255%);fill-opacity:1;" d="M 67.75 81.875 L 68 82 Z M 67.75 81.875 "/>
<path style=" stroke:none;fill-rule:nonzero;fill:rgb(32.54902%,5.882353%,9.803922%);fill-opacity:1;" d="M 75 81.75 L 75.375 82.125 Z M 75 81.75 "/>
<path style=" stroke:none;fill-rule:nonzero;fill:rgb(97.254902%,85.490196%,12.941176%);fill-opacity:1;" d="M 102.375 81.75 L 102.75 82.125 L 102.375 81.75 M 39.375 82.125 L 39.75 82.5 Z M 39.375 82.125 "/>
<path style=" stroke:none;fill-rule:nonzero;fill:rgb(78.431373%,3.137255%,3.137255%);fill-opacity:1;" d="M 68.25 82.125 L 68.625 82.5 Z M 68.25 82.125 "/>
<path style=" stroke:none;fill-rule:nonzero;fill:rgb(97.254902%,85.490196%,12.941176%);fill-opacity:1;" d="M 102 82.125 L 102.375 82.5 Z M 102 82.125 "/>
<path style=" stroke:none;fill-rule:nonzero;fill:rgb(15.686275%,26.666667%,51.764706%);fill-opacity:1;" d="M 39.75 82.5 L 40.125 82.875 Z M 39.75 82.5 "/>
<path style=" stroke:none;fill-rule:nonzero;fill:rgb(78.431373%,3.137255%,3.137255%);fill-opacity:1;" d="M 69.25 82.625 L 69.5 82.75 L 69.25 82.625 M 40.125 82.875 L 40.5 83.25 Z M 40.125 82.875 "/>
<path style=" stroke:none;fill-rule:nonzero;fill:rgb(32.54902%,5.882353%,9.803922%);fill-opacity:1;" d="M 71.625 83.25 L 71.625 83.625 L 73.125 83.25 L 71.625 83.25 M 100.875 82.875 L 101.25 83.25 Z M 100.875 82.875 "/>
<path style=" stroke:none;fill-rule:nonzero;fill:rgb(97.254902%,85.490196%,12.941176%);fill-opacity:1;" d="M 101.625 82.875 L 102 83.25 L 101.625 82.875 M 40.125 83.25 L 40.5 83.625 L 40.125 83.25 M 101.25 83.25 L 101.625 83.625 L 101.25 83.25 M 40.5 83.625 L 40.875 84 L 40.5 83.625 M 100.875 83.625 L 101.25 84 L 100.875 83.625 M 40.875 84 L 41.25 84.375 Z M 40.875 84 "/>
<path style=" stroke:none;fill-rule:nonzero;fill:rgb(32.54902%,5.882353%,9.803922%);fill-opacity:1;" d="M 100 84.125 L 100.25 84.25 Z M 100 84.125 "/>
<path style=" stroke:none;fill-rule:nonzero;fill:rgb(97.254902%,85.490196%,12.941176%);fill-opacity:1;" d="M 100.5 84 L 100.875 84.375 L 100.5 84 M 41.25 84.375 L 41.625 84.75 Z M 41.25 84.375 "/>
<path style=" stroke:none;fill-rule:nonzero;fill:rgb(32.54902%,5.882353%,9.803922%);fill-opacity:1;" d="M 99.375 84.375 L 99.75 84.75 Z M 99.375 84.375 "/>
<path style=" stroke:none;fill-rule:nonzero;fill:rgb(97.254902%,85.490196%,12.941176%);fill-opacity:1;" d="M 100.125 84.375 L 100.5 84.75 L 100.125 84.375 M 41.625 84.75 L 42 85.125 Z M 41.625 84.75 "/>
<path style=" stroke:none;fill-rule:nonzero;fill:rgb(78.431373%,3.137255%,3.137255%);fill-opacity:1;" d="M 42 84.75 L 42.375 85.125 Z M 42 84.75 "/>
<path style=" stroke:none;fill-rule:nonzero;fill:rgb(97.254902%,85.490196%,12.941176%);fill-opacity:1;" d="M 99.75 84.75 L 100.125 85.125 L 99.75 84.75 M 42.625 85.25 L 42.875 85.375 Z M 42.625 85.25 "/>
<path style=" stroke:none;fill-rule:nonzero;fill:rgb(78.431373%,3.137255%,3.137255%);fill-opacity:1;" d="M 43.125 85.125 L 43.125 85.5 L 45 85.5 Z M 43.125 85.125 "/>
<path style=" stroke:none;fill-rule:nonzero;fill:rgb(97.254902%,85.490196%,12.941176%);fill-opacity:1;" d="M 98.25 85.125 L 98.25 85.5 L 99.75 85.5 L 98.25 85.125 M 93 88.125 L 93.375 88.5 Z M 93 88.125 "/>
<path style=" stroke:none;fill-rule:nonzero;fill:rgb(15.686275%,26.666667%,51.764706%);fill-opacity:1;" d="M 46.5 88.5 L 46.5 88.875 L 60 88.875 C 56.414062 87.371094 50.394531 88.5 46.5 88.5 Z M 46.5 88.5 "/>
<path style=" stroke:none;fill-rule:nonzero;fill:rgb(32.54902%,5.882353%,9.803922%);fill-opacity:1;" d="M 47.25 88.875 C 55.550781 98.628906 73.84375 97.988281 84.75 94.5 L 84.75 94.125 C 78.902344 95.257812 73.652344 93.550781 69 89.625 L 74.25 88.5 Z M 47.25 88.875 "/>
<path style=" stroke:none;fill-rule:nonzero;fill:rgb(78.431373%,3.137255%,3.137255%);fill-opacity:1;" d="M 73.5 88.5 L 73.875 88.875 L 73.5 88.5 M 69 89.625 C 73.203125 94.660156 79.457031 94.25 85.125 94.5 L 88.875 93 L 94.875 88.875 L 86.25 88.5 Z M 69 89.625 "/>
<path style=" stroke:none;fill-rule:nonzero;fill:rgb(32.54902%,5.882353%,9.803922%);fill-opacity:1;" d="M 94.5 88.5 L 94.875 88.875 Z M 94.5 88.5 "/>
<path style=" stroke:none;fill-rule:nonzero;fill:rgb(15.686275%,26.666667%,51.764706%);fill-opacity:1;" d="M 94.875 88.5 L 95.25 88.875 Z M 94.875 88.5 "/>
<path style=" stroke:none;fill-rule:nonzero;fill:rgb(97.254902%,85.490196%,12.941176%);fill-opacity:1;" d="M 95.25 88.5 L 95.625 88.875 L 95.25 88.5 M 46.5 88.875 L 46.875 89.25 L 46.5 88.875 M 94.875 88.875 L 95.25 89.25 L 94.875 88.875 M 47.25 89.25 L 47.625 89.625 L 47.25 89.25 M 94.5 89.25 L 94.875 89.625 L 94.5 89.25 M 94.125 89.625 L 94.5 90 L 94.125 89.625 M 48.375 90 L 48.75 90.375 L 48.375 90 M 93.375 90 L 93.75 90.375 Z M 93.375 90 "/>
<path style=" stroke:none;fill-rule:nonzero;fill:rgb(15.686275%,26.666667%,51.764706%);fill-opacity:1;" d="M 49.125 90.375 L 49.5 90.75 Z M 49.125 90.375 "/>
<path style=" stroke:none;fill-rule:nonzero;fill:rgb(97.254902%,85.490196%,12.941176%);fill-opacity:1;" d="M 93 90.375 L 93.375 90.75 L 93 90.375 M 49.5 90.75 L 49.875 91.125 L 49.5 90.75 M 92.25 90.75 L 92.625 91.125 Z M 92.25 90.75 "/>
<path style=" stroke:none;fill-rule:nonzero;fill:rgb(15.686275%,26.666667%,51.764706%);fill-opacity:1;" d="M 50.25 91.125 L 50.625 91.5 Z M 50.25 91.125 "/>
<path style=" stroke:none;fill-rule:nonzero;fill:rgb(97.254902%,85.490196%,12.941176%);fill-opacity:1;" d="M 91.5 91.125 L 91.875 91.5 L 91.5 91.125 M 50.625 91.5 L 51 91.875 Z M 50.625 91.5 "/>
<path style=" stroke:none;fill-rule:nonzero;fill:rgb(15.686275%,26.666667%,51.764706%);fill-opacity:1;" d="M 51 91.5 L 51.375 91.875 Z M 51 91.5 "/>
<path style=" stroke:none;fill-rule:nonzero;fill:rgb(97.254902%,85.490196%,12.941176%);fill-opacity:1;" d="M 91.125 91.5 L 91.5 91.875 Z M 91.125 91.5 "/>
<path style=" stroke:none;fill-rule:nonzero;fill:rgb(15.686275%,26.666667%,51.764706%);fill-opacity:1;" d="M 51.375 91.875 L 51.75 92.25 Z M 51.375 91.875 "/>
<path style=" stroke:none;fill-rule:nonzero;fill:rgb(97.254902%,85.490196%,12.941176%);fill-opacity:1;" d="M 90.375 91.875 L 90.75 92.25 Z M 90.375 91.875 "/>
<path style=" stroke:none;fill-rule:nonzero;fill:rgb(15.686275%,26.666667%,51.764706%);fill-opacity:1;" d="M 52.125 92.25 L 52.5 92.625 Z M 52.125 92.25 "/>
<path style=" stroke:none;fill-rule:nonzero;fill:rgb(32.54902%,5.882353%,9.803922%);fill-opacity:1;" d="M 88.875 92.25 L 89.25 92.625 Z M 88.875 92.25 "/>
<path style=" stroke:none;fill-rule:nonzero;fill:rgb(97.254902%,85.490196%,12.941176%);fill-opacity:1;" d="M 89.625 92.25 L 90 92.625 Z M 89.625 92.25 "/>
<path style=" stroke:none;fill-rule:nonzero;fill:rgb(15.686275%,26.666667%,51.764706%);fill-opacity:1;" d="M 52.875 92.625 L 53.25 93 Z M 52.875 92.625 "/>
<path style=" stroke:none;fill-rule:nonzero;fill:rgb(32.54902%,5.882353%,9.803922%);fill-opacity:1;" d="M 87 93 L 87 93.375 L 88.5 93 Z M 87 93 "/>
<path style=" stroke:none;fill-rule:nonzero;fill:rgb(97.254902%,85.490196%,12.941176%);fill-opacity:1;" d="M 88.875 92.625 L 89.25 93 L 88.875 92.625 M 53.25 93 L 53.625 93.375 Z M 53.25 93 "/>
<path style=" stroke:none;fill-rule:nonzero;fill:rgb(15.686275%,26.666667%,51.764706%);fill-opacity:1;" d="M 53.625 93 L 54 93.375 L 53.625 93 M 87.75 93 L 88.125 93.375 Z M 87.75 93 "/>
<path style=" stroke:none;fill-rule:nonzero;fill:rgb(97.254902%,85.490196%,12.941176%);fill-opacity:1;" d="M 88.125 93 L 88.5 93.375 L 88.125 93 M 54.375 93.375 L 54.75 93.75 L 54.375 93.375 M 87.25 93.5 L 87.5 93.625 L 87.25 93.5 M 55.125 93.75 L 55.5 94.125 Z M 55.125 93.75 "/>
<path style=" stroke:none;fill-rule:nonzero;fill:rgb(15.686275%,26.666667%,51.764706%);fill-opacity:1;" d="M 55.5 93.75 L 55.875 94.125 Z M 55.5 93.75 "/>
<path style=" stroke:none;fill-rule:nonzero;fill:rgb(32.54902%,5.882353%,9.803922%);fill-opacity:1;" d="M 85.375 93.875 L 85.625 94 Z M 85.375 93.875 "/>
<path style=" stroke:none;fill-rule:nonzero;fill:rgb(97.254902%,85.490196%,12.941176%);fill-opacity:1;" d="M 86.25 93.75 L 86.625 94.125 Z M 86.25 93.75 "/>
<path style=" stroke:none;fill-rule:nonzero;fill:rgb(15.686275%,26.666667%,51.764706%);fill-opacity:1;" d="M 56.25 94.125 L 56.625 94.5 Z M 56.25 94.125 "/>
<path style=" stroke:none;fill-rule:nonzero;fill:rgb(97.254902%,85.490196%,12.941176%);fill-opacity:1;" d="M 85.375 94.25 L 85.625 94.375 L 85.375 94.25 M 57 94.5 L 57.375 94.875 Z M 57 94.5 "/>
<path style=" stroke:none;fill-rule:nonzero;fill:rgb(15.686275%,26.666667%,51.764706%);fill-opacity:1;" d="M 57.375 94.5 L 57.75 94.875 L 57.375 94.5 M 84 94.5 L 84.375 94.875 Z M 84 94.5 "/>
<path style=" stroke:none;fill-rule:nonzero;fill:rgb(97.254902%,85.490196%,12.941176%);fill-opacity:1;" d="M 84.375 94.5 L 84.75 94.875 L 84.375 94.5 M 58.125 94.875 L 58.5 95.25 Z M 58.125 94.875 "/>
<path style=" stroke:none;fill-rule:nonzero;fill:rgb(15.686275%,26.666667%,51.764706%);fill-opacity:1;" d="M 58.5 94.875 L 58.875 95.25 Z M 58.5 94.875 "/>
<path style=" stroke:none;fill-rule:nonzero;fill:rgb(78.431373%,3.137255%,3.137255%);fill-opacity:1;" d="M 82.875 94.875 L 83.25 95.25 Z M 82.875 94.875 "/>
<path style=" stroke:none;fill-rule:nonzero;fill:rgb(97.254902%,85.490196%,12.941176%);fill-opacity:1;" d="M 83.25 94.875 L 83.625 95.25 L 83.25 94.875 M 59.5 95.375 L 59.75 95.5 Z M 59.5 95.375 "/>
<path style=" stroke:none;fill-rule:nonzero;fill:rgb(15.686275%,26.666667%,51.764706%);fill-opacity:1;" d="M 81.375 95.25 L 81.75 95.625 Z M 81.375 95.25 "/>
<path style=" stroke:none;fill-rule:nonzero;fill:rgb(97.254902%,85.490196%,12.941176%);fill-opacity:1;" d="M 82 95.375 L 82.25 95.5 L 82 95.375 M 60.75 95.625 L 61.125 96 Z M 60.75 95.625 "/>
<path style=" stroke:none;fill-rule:nonzero;fill:rgb(15.686275%,26.666667%,51.764706%);fill-opacity:1;" d="M 61.375 95.75 L 61.625 95.875 L 61.375 95.75 M 79.875 95.625 L 80.25 96 Z M 79.875 95.625 "/>
<path style=" stroke:none;fill-rule:nonzero;fill:rgb(97.254902%,85.490196%,12.941176%);fill-opacity:1;" d="M 80.5 95.75 L 80.75 95.875 L 80.5 95.75 M 62.5 96.125 L 62.75 96.25 Z M 62.5 96.125 "/>
<path style=" stroke:none;fill-rule:nonzero;fill:rgb(15.686275%,26.666667%,51.764706%);fill-opacity:1;" d="M 63.25 96.125 L 63.5 96.25 L 63.25 96.125 M 78.25 96.125 L 78.5 96.25 Z M 78.25 96.125 "/>
<path style=" stroke:none;fill-rule:nonzero;fill:rgb(97.254902%,85.490196%,12.941176%);fill-opacity:1;" d="M 79 96.125 L 79.25 96.25 L 79 96.125 M 64.75 96.5 L 65 96.625 Z M 64.75 96.5 "/>
<path style=" stroke:none;fill-rule:nonzero;fill:rgb(15.686275%,26.666667%,51.764706%);fill-opacity:1;" d="M 65.5 96.5 L 65.75 96.625 L 65.5 96.5 M 76 96.5 L 76.25 96.625 Z M 76 96.5 "/>
<path style=" stroke:none;fill-rule:nonzero;fill:rgb(97.254902%,85.490196%,12.941176%);fill-opacity:1;" d="M 76.75 96.5 L 77 96.625 L 76.75 96.5 M 67.5 96.75 L 67.5 97.125 L 69 97.125 Z M 67.5 96.75 "/>
<path style=" stroke:none;fill-rule:nonzero;fill:rgb(15.686275%,26.666667%,51.764706%);fill-opacity:1;" d="M 69 96.75 L 69 97.125 L 72 97.125 Z M 69 96.75 "/>
<path style=" stroke:none;fill-rule:nonzero;fill:rgb(97.254902%,85.490196%,12.941176%);fill-opacity:1;" d="M 72 96.75 L 72 97.125 L 73.875 97.125 Z M 72 96.75 "/>
<path style=" stroke:none;fill-rule:nonzero;fill:rgb(15.686275%,26.666667%,51.764706%);fill-opacity:1;" d="M 38.25 105.75 L 38.25 106.125 L 34.5 105.75 L 34.125 107.25 C 39.097656 109.640625 41.566406 104.503906 35.625 103.125 L 35.625 102.375 L 39 102.75 L 39.375 102.375 L 39.375 101.625 C 37.824219 100.878906 32.808594 100.617188 34.574219 103.789062 C 35.238281 104.984375 37.066406 105.308594 38.25 105.75 Z M 38.25 105.75 "/>
<path style=" stroke:none;fill-rule:nonzero;fill:rgb(97.254902%,85.490196%,12.941176%);fill-opacity:1;" d="M 38.25 100.875 L 38.625 101.25 Z M 38.25 100.875 "/>
<path style=" stroke:none;fill-rule:nonzero;fill:rgb(15.686275%,26.666667%,51.764706%);fill-opacity:1;" d="M 75.375 100.875 L 75.375 108 L 76.875 108 L 76.875 105.375 C 78.71875 105.371094 83.414062 103.609375 80.085938 101.316406 C 78.890625 100.492188 76.753906 100.875 75.375 100.875 Z M 75.375 100.875 "/>
<path style=" stroke:none;fill-rule:nonzero;fill:rgb(97.254902%,85.490196%,12.941176%);fill-opacity:1;" d="M 34.5 101.25 L 34.875 101.625 L 34.5 101.25 M 39 101.25 L 39.375 101.625 L 39 101.25 M 39.375 101.625 L 39.75 102 L 39.375 101.625 M 80.625 101.625 L 81 102 L 80.625 101.625 M 37.125 102 L 37.5 102.375 Z M 37.125 102 "/>
<path style=" stroke:none;fill-rule:nonzero;fill:rgb(15.686275%,26.666667%,51.764706%);fill-opacity:1;" d="M 40.875 102 L 40.875 108 L 45 108 C 44.496094 106.484375 43.476562 106.519531 42 106.5 L 42 105.75 L 45 105.75 L 45 104.25 L 42 104.25 L 42 103.5 L 45 103.5 L 45 102 L 40.875 102 M 51.375 107.25 L 51.375 106.5 L 51 106.125 C 49.582031 106.453125 45.816406 105.433594 48.4375 103.804688 C 49.222656 103.316406 50.488281 103.621094 51.375 103.5 L 51.375 102.75 C 44.421875 99.804688 44.832031 110.398438 51.375 107.25 M 54.015625 102.28125 C 50.492188 103.664062 52.703125 109.078125 56.242188 107.773438 C 60.03125 106.375 57.613281 100.867188 54.015625 102.28125 Z M 54.015625 102.28125 "/>
<path style=" stroke:none;fill-rule:nonzero;fill:rgb(97.254902%,85.490196%,12.941176%);fill-opacity:1;" d="M 56.25 102 L 56.625 102.375 Z M 56.25 102 "/>
<path style=" stroke:none;fill-rule:nonzero;fill:rgb(15.686275%,26.666667%,51.764706%);fill-opacity:1;" d="M 59.25 102 L 59.25 108 L 60.75 108 L 60.75 104.625 L 61.125 104.625 C 61.984375 106.347656 62.894531 107.6875 64.875 108 L 64.875 102 L 63.375 102 L 63.375 105.375 C 62.214844 103.761719 61.3125 102.320312 59.25 102 Z M 59.25 102 "/>
<path style=" stroke:none;fill-rule:nonzero;fill:rgb(97.254902%,85.490196%,12.941176%);fill-opacity:1;" d="M 66 102 L 66.375 102.375 Z M 66 102 "/>
<path style=" stroke:none;fill-rule:nonzero;fill:rgb(15.686275%,26.666667%,51.764706%);fill-opacity:1;" d="M 66.601562 102.386719 C 63.976562 104.457031 66.859375 109.96875 70.445312 107.347656 C 73.679688 104.976562 69.386719 100.1875 66.601562 102.386719 Z M 66.601562 102.386719 "/>
<path style=" stroke:none;fill-rule:nonzero;fill:rgb(97.254902%,85.490196%,12.941176%);fill-opacity:1;" d="M 69.375 102 L 69.75 102.375 Z M 69.375 102 "/>
<path style=" stroke:none;fill-rule:nonzero;fill:rgb(15.686275%,26.666667%,51.764706%);fill-opacity:1;" d="M 80.625 108 L 86.625 108 C 86.425781 106.660156 85.414062 101.691406 83.335938 102.28125 C 81.734375 102.738281 80.957031 106.59375 80.625 108 Z M 80.625 108 "/>
<path style=" stroke:none;fill-rule:nonzero;fill:rgb(97.254902%,85.490196%,12.941176%);fill-opacity:1;" d="M 84.375 102 L 84.75 102.375 L 84.375 102 M 87.375 102 L 87.75 102.375 Z M 87.375 102 "/>
<path style=" stroke:none;fill-rule:nonzero;fill:rgb(15.686275%,26.666667%,51.764706%);fill-opacity:1;" d="M 88.875 108 L 88.875 106.125 L 92.25 108 C 91.957031 106.527344 92.726562 104.867188 92.304688 103.539062 C 90.628906 98.261719 83.601562 106.25 88.875 108 Z M 88.875 108 "/>
<path style=" stroke:none;fill-rule:nonzero;fill:rgb(97.254902%,85.490196%,12.941176%);fill-opacity:1;" d="M 91.125 102 L 91.5 102.375 L 91.125 102 M 93 102 L 93.375 102.375 Z M 93 102 "/>
<path style=" stroke:none;fill-rule:nonzero;fill:rgb(15.686275%,26.666667%,51.764706%);fill-opacity:1;" d="M 93 102.375 L 93 103.125 L 94.875 103.5 L 94.875 108 L 96 108 L 96 103.5 L 97.875 103.5 L 97.875 102 L 93 102.375 M 98.625 102 L 98.625 108 L 100.125 108 L 100.125 104.625 L 100.5 104.625 C 101.359375 106.347656 102.269531 107.6875 104.25 108 L 104.25 102 L 102.75 102 L 102.75 105.375 C 101.613281 103.714844 100.710938 102.324219 98.625 102 Z M 98.625 102 "/>
<path style=" stroke:none;fill-rule:nonzero;fill:rgb(97.254902%,85.490196%,12.941176%);fill-opacity:1;" d="M 100.125 102 L 100.5 102.375 L 100.125 102 M 105.375 102 L 105.75 102.375 Z M 105.375 102 "/>
<path style=" stroke:none;fill-rule:nonzero;fill:rgb(15.686275%,26.666667%,51.764706%);fill-opacity:1;" d="M 109.875 108 L 109.875 106.5 L 106.875 106.5 L 106.875 105.75 C 108.351562 105.730469 109.371094 105.765625 109.875 104.25 L 106.875 104.25 L 106.875 103.5 L 109.875 103.5 L 109.875 102 C 108.777344 102 106.894531 101.660156 105.976562 102.386719 C 104.988281 103.167969 104.988281 106.832031 105.976562 107.613281 C 106.894531 108.339844 108.777344 108 109.875 108 M 111 102 L 111 108 L 112.5 108 L 112.5 106.125 L 115.875 108 C 114.53125 103.933594 116.710938 102 111 102 Z M 111 102 "/>
<path style=" stroke:none;fill-rule:nonzero;fill:rgb(97.254902%,85.490196%,12.941176%);fill-opacity:1;" d="M 40.5 102.375 L 40.5 107.625 L 40.875 107.625 L 40.5 102.375 M 46.875 102.375 L 47.25 102.75 L 46.875 102.375 M 50.625 102.375 L 51 102.75 L 50.625 102.375 M 57 102.375 L 57.375 102.75 Z M 57 102.375 "/>
<path style=" stroke:none;fill-rule:nonzero;fill:rgb(99.607843%,99.607843%,99.215686%);fill-opacity:1;" d="M 76.875 102.375 L 76.875 103.875 L 79.5 103.875 L 79.5 102.375 Z M 76.875 102.375 "/>
<path style=" stroke:none;fill-rule:nonzero;fill:rgb(97.254902%,85.490196%,12.941176%);fill-opacity:1;" d="M 57.375 102.75 L 57.75 103.125 L 57.375 102.75 M 70.875 102.75 L 71.25 103.125 L 70.875 102.75 M 81.125 103 L 81.25 103.25 L 81.125 103 M 84.75 102.75 L 85.125 103.125 L 84.75 102.75 M 46.125 103.125 L 46.5 103.5 L 46.125 103.125 M 48.375 103.125 L 48.75 103.5 Z M 48.375 103.125 "/>
<path style=" stroke:none;fill-rule:nonzero;fill:rgb(99.607843%,99.607843%,99.215686%);fill-opacity:1;" d="M 54.796875 103.488281 C 53.066406 103.921875 53.621094 106.96875 55.453125 106.511719 C 57.183594 106.078125 56.628906 103.03125 54.796875 103.488281 Z M 54.796875 103.488281 "/>
<path style=" stroke:none;fill-rule:nonzero;fill:rgb(97.254902%,85.490196%,12.941176%);fill-opacity:1;" d="M 76.875 103.125 L 77.25 103.5 L 76.875 103.125 M 82.125 103.125 L 82.5 103.5 L 82.125 103.125 M 93 103.125 L 93.375 103.5 L 93 103.125 M 34.125 103.5 L 34.5 103.875 L 34.125 103.5 M 37.5 103.5 L 37.875 103.875 L 37.5 103.5 M 49.875 103.5 L 50.25 103.875 L 49.875 103.5 M 51 103.5 L 51.375 103.875 L 51 103.5 M 52.125 103.5 L 52.5 103.875 Z M 52.125 103.5 "/>
<path style=" stroke:none;fill-rule:nonzero;fill:rgb(99.607843%,99.607843%,99.215686%);fill-opacity:1;" d="M 67.5 103.5 L 67.5 106.5 C 70.636719 106.398438 70.636719 103.601562 67.5 103.5 M 88.875 103.5 L 88.875 104.625 L 91.125 104.25 Z M 88.875 103.5 "/>
<path style=" stroke:none;fill-rule:nonzero;fill:rgb(97.254902%,85.490196%,12.941176%);fill-opacity:1;" d="M 90.75 103.5 L 91.125 103.875 L 90.75 103.5 M 96 103.5 L 96.375 103.875 Z M 96 103.5 "/>
<path style=" stroke:none;fill-rule:nonzero;fill:rgb(99.607843%,99.607843%,99.215686%);fill-opacity:1;" d="M 112.5 103.5 L 112.5 104.625 L 114.375 104.625 L 114.375 103.5 Z M 112.5 103.5 "/>
<path style=" stroke:none;fill-rule:nonzero;fill:rgb(97.254902%,85.490196%,12.941176%);fill-opacity:1;" d="M 116 103.75 L 116.125 104 L 116 103.75 M 77.25 103.875 L 77.25 104.25 L 78.375 104.25 Z M 77.25 103.875 "/>
<path style=" stroke:none;fill-rule:nonzero;fill:rgb(99.607843%,99.607843%,99.215686%);fill-opacity:1;" d="M 83.625 103.875 L 82.875 105.75 L 84.375 105.75 Z M 83.625 103.875 "/>
<path style=" stroke:none;fill-rule:nonzero;fill:rgb(97.254902%,85.490196%,12.941176%);fill-opacity:1;" d="M 114.375 103.875 L 114.75 104.25 L 114.375 103.875 M 39 104.25 L 39.375 104.625 L 39 104.25 M 47.25 104.25 L 47.625 104.625 L 47.25 104.25 M 80.625 104.25 L 81 104.625 L 80.625 104.25 M 56.75 104.875 L 56.875 105.125 L 56.75 104.875 M 85.5 104.625 L 85.875 105 L 85.5 104.625 M 96 104.625 L 96 108 L 96.375 108 L 96 104.625 M 36.75 105 L 37.125 105.375 L 36.75 105 M 61.125 105 L 61.5 105.375 L 61.125 105 M 81.375 105 L 81.75 105.375 L 81.375 105 M 115.5 105 L 115.875 105.375 L 115.5 105 M 47.25 105.375 L 47.625 105.75 L 47.25 105.375 M 58.125 105.375 L 58.5 105.75 L 58.125 105.375 M 76.875 105.375 L 77.25 105.75 L 76.875 105.375 M 109.5 105.375 L 109.875 105.75 L 109.5 105.375 M 34.125 106.125 L 34.5 106.5 L 34.125 106.125 M 51 106.125 L 51.375 106.5 L 51 106.125 M 52.125 106.125 L 52.5 106.5 L 52.125 106.125 M 36.75 106.5 L 37.125 106.875 L 36.75 106.5 M 44.625 106.5 L 45 106.875 L 44.625 106.5 M 46.125 106.5 L 46.5 106.875 L 46.125 106.5 M 55.5 106.5 L 55.875 106.875 L 55.5 106.5 M 62.25 106.5 L 62.625 106.875 L 62.25 106.5 M 86.25 106.5 L 86.625 106.875 L 86.25 106.5 M 90 106.5 L 90.375 106.875 L 90 106.5 M 101.625 106.5 L 102 106.875 L 101.625 106.5 M 109.125 106.5 L 109.5 106.875 L 109.125 106.5 M 115.125 106.5 L 115.5 106.875 L 115.125 106.5 M 52.5 106.875 L 52.875 107.25 L 52.5 106.875 M 57.375 106.875 L 57.75 107.25 L 57.375 106.875 M 80.625 106.875 L 81 107.25 L 80.625 106.875 M 91.875 106.875 L 92.25 107.25 L 91.875 106.875 M 57 107.25 L 57.375 107.625 L 57 107.25 M 76.875 107.25 L 77.25 107.625 L 76.875 107.25 M 82.125 107.25 L 82.5 107.625 L 82.125 107.25 M 86.75 107.5 L 86.875 107.75 L 86.75 107.5 M 38.25 107.625 L 38.625 108 L 38.25 107.625 M 53.625 107.625 L 54 108 L 53.625 107.625 M 66 107.625 L 66.375 108 L 66 107.625 M 87.375 107.625 L 87.75 108 L 87.375 107.625 M 92.25 107.625 L 92.625 108 L 92.25 107.625 M 105.375 107.625 L 105.75 108 L 105.375 107.625 M 46.875 111.375 L 47.25 111.75 Z M 46.875 111.375 "/>
<path style=" stroke:none;fill-rule:nonzero;fill:rgb(15.686275%,26.666667%,51.764706%);fill-opacity:1;" d="M 47.25 117.375 L 47.625 117.375 L 47.625 114.75 L 50.625 114.75 L 50.625 114 L 47.625 114 L 47.625 112.125 L 50.625 112.125 L 50.625 111.375 C 46.660156 111.378906 46.175781 113.746094 47.25 117.375 Z M 47.25 117.375 "/>
<path style=" stroke:none;fill-rule:nonzero;fill:rgb(97.254902%,85.490196%,12.941176%);fill-opacity:1;" d="M 50.75 111.625 L 50.875 111.875 L 50.75 111.625 M 64.875 111.375 L 65.25 111.75 Z M 64.875 111.375 "/>
<path style=" stroke:none;fill-rule:nonzero;fill:rgb(15.686275%,26.666667%,51.764706%);fill-opacity:1;" d="M 65.25 117.375 L 65.625 117.375 L 65.625 114.75 L 68.625 114.75 L 68.625 114 L 65.625 114 L 65.625 112.125 L 68.625 112.125 L 68.625 111.375 C 64.660156 111.378906 64.175781 113.746094 65.25 117.375 M 82.5 111.375 L 82.5 113.25 C 78.3125 112.480469 78.808594 117.0625 82.875 117.375 C 83.414062 115.550781 83.691406 112.949219 82.5 111.375 Z M 82.5 111.375 "/>
<path style=" stroke:none;fill-rule:nonzero;fill:rgb(97.254902%,85.490196%,12.941176%);fill-opacity:1;" d="M 82.875 111.375 L 83.25 111.75 Z M 82.875 111.375 "/>
<path style=" stroke:none;fill-rule:nonzero;fill:rgb(15.686275%,26.666667%,51.764706%);fill-opacity:1;" d="M 90.75 111.375 L 90.75 117.375 L 94.125 117 L 94.125 116.625 L 91.5 116.625 Z M 90.75 111.375 "/>
<path style=" stroke:none;fill-rule:nonzero;fill:rgb(97.254902%,85.490196%,12.941176%);fill-opacity:1;" d="M 91.125 111.375 L 91.5 111.75 L 91.125 111.375 M 100.125 111.375 L 100.5 111.75 Z M 100.125 111.375 "/>
<path style=" stroke:none;fill-rule:nonzero;fill:rgb(15.686275%,26.666667%,51.764706%);fill-opacity:1;" d="M 100.5 111.375 L 100.125 113.25 C 98.199219 112.894531 95.730469 114.820312 97.726562 116.714844 C 98.488281 117.441406 99.90625 117.257812 100.875 117.375 L 100.5 111.375 M 60.375 111.75 L 59.625 113.25 L 61.875 117.375 C 61.273438 115.800781 61.023438 114.78125 61.875 113.25 Z M 60.375 111.75 "/>
<path style=" stroke:none;fill-rule:nonzero;fill:rgb(97.254902%,85.490196%,12.941176%);fill-opacity:1;" d="M 60.75 111.75 L 61.125 112.125 L 60.75 111.75 M 68.625 111.75 L 69 112.125 L 68.625 111.75 M 90.375 111.75 L 90.75 112.125 Z M 90.375 111.75 "/>
<path style=" stroke:none;fill-rule:nonzero;fill:rgb(32.54902%,5.882353%,9.803922%);fill-opacity:1;" d="M 90.875 112 L 91 112.25 Z M 90.875 112 "/>
<path style=" stroke:none;fill-rule:nonzero;fill:rgb(15.686275%,26.666667%,51.764706%);fill-opacity:1;" d="M 94.875 111.75 L 94.125 113.25 L 96.375 117.375 C 95.773438 115.800781 95.523438 114.78125 96.375 113.25 Z M 94.875 111.75 "/>
<path style=" stroke:none;fill-rule:nonzero;fill:rgb(97.254902%,85.490196%,12.941176%);fill-opacity:1;" d="M 95.25 111.75 L 95.625 112.125 L 95.25 111.75 M 47.625 112.125 L 48 112.5 L 47.625 112.125 M 65.625 112.125 L 66 112.5 Z M 65.625 112.125 "/>
<path style=" stroke:none;fill-rule:nonzero;fill:rgb(32.54902%,5.882353%,9.803922%);fill-opacity:1;" d="M 94.875 112.125 L 95.25 112.5 Z M 94.875 112.125 "/>
<path style=" stroke:none;fill-rule:nonzero;fill:rgb(15.686275%,26.666667%,51.764706%);fill-opacity:1;" d="M 51.75 114 L 54.375 114.75 C 50.398438 114.796875 51.886719 117.101562 55.125 117 C 55.027344 115.226562 53.929688 110.929688 51.75 114 Z M 51.75 114 "/>
<path style=" stroke:none;fill-rule:nonzero;fill:rgb(97.254902%,85.490196%,12.941176%);fill-opacity:1;" d="M 56.625 112.875 L 57 113.25 Z M 56.625 112.875 "/>
<path style=" stroke:none;fill-rule:nonzero;fill:rgb(15.686275%,26.666667%,51.764706%);fill-opacity:1;" d="M 56.25 113.25 L 56.25 113.625 L 58.875 114 Z M 56.25 113.25 "/>
<path style=" stroke:none;fill-rule:nonzero;fill:rgb(97.254902%,85.490196%,12.941176%);fill-opacity:1;" d="M 58.125 112.875 L 58.5 113.25 L 58.125 112.875 M 59.625 112.875 L 60 113.25 L 59.625 112.875 M 61.5 112.875 L 61.875 113.25 L 61.5 112.875 M 70.5 112.875 L 70.875 113.25 Z M 70.5 112.875 "/>
<path style=" stroke:none;fill-rule:nonzero;fill:rgb(15.686275%,26.666667%,51.764706%);fill-opacity:1;" d="M 69.75 113.625 L 70.125 114.375 C 68.554688 115.808594 71.027344 118.058594 72.628906 116.769531 C 75.136719 114.75 71.929688 112.628906 69.75 113.625 Z M 69.75 113.625 "/>
<path style=" stroke:none;fill-rule:nonzero;fill:rgb(97.254902%,85.490196%,12.941176%);fill-opacity:1;" d="M 72 112.875 L 72.375 113.25 L 72 112.875 M 75.375 112.875 L 75.75 113.25 Z M 75.375 112.875 "/>
<path style=" stroke:none;fill-rule:nonzero;fill:rgb(15.686275%,26.666667%,51.764706%);fill-opacity:1;" d="M 75.789062 113.195312 C 73.449219 113.914062 74.464844 117.789062 76.855469 117.109375 C 79.257812 116.421875 78.242188 112.441406 75.789062 113.195312 Z M 75.789062 113.195312 "/>
<path style=" stroke:none;fill-rule:nonzero;fill:rgb(97.254902%,85.490196%,12.941176%);fill-opacity:1;" d="M 76.875 112.875 L 77.25 113.25 L 76.875 112.875 M 80.25 112.875 L 80.625 113.25 L 80.25 112.875 M 84.75 112.875 L 85.125 113.25 Z M 84.75 112.875 "/>
<path style=" stroke:none;fill-rule:nonzero;fill:rgb(15.686275%,26.666667%,51.764706%);fill-opacity:1;" d="M 84 114 L 84 114.375 L 84.75 115.125 L 85.125 115.125 L 84.75 114 L 87 114 C 86.082031 112.71875 85.089844 113.066406 84 114 Z M 84 114 "/>
<path style=" stroke:none;fill-rule:nonzero;fill:rgb(97.254902%,85.490196%,12.941176%);fill-opacity:1;" d="M 86.25 112.875 L 86.625 113.25 L 86.25 112.875 M 90.375 112.875 L 90.75 113.25 L 90.375 112.875 M 94.125 112.875 L 94.5 113.25 L 94.125 112.875 M 96 112.875 L 96.375 113.25 L 96 112.875 M 97.875 112.875 L 98.25 113.25 L 97.875 112.875 M 99.375 112.875 L 99.75 113.25 L 99.375 112.875 M 72.75 113.25 L 73.125 113.625 L 72.75 113.25 M 47.625 113.625 L 48 114 L 47.625 113.625 M 55.875 113.625 L 56.25 114 Z M 55.875 113.625 "/>
<path style=" stroke:none;fill-rule:nonzero;fill:rgb(32.54902%,5.882353%,9.803922%);fill-opacity:1;" d="M 56.25 113.625 L 56.625 114 Z M 56.25 113.625 "/>
<path style=" stroke:none;fill-rule:nonzero;fill:rgb(97.254902%,85.490196%,12.941176%);fill-opacity:1;" d="M 56.625 113.625 L 57 114 Z M 56.625 113.625 "/>
<path style=" stroke:none;fill-rule:nonzero;fill:rgb(99.607843%,99.607843%,99.215686%);fill-opacity:1;" d="M 70.980469 114.03125 C 69.835938 114.734375 70.554688 116.84375 71.886719 116.183594 C 73.171875 115.546875 72.359375 113.183594 70.980469 114.03125 Z M 70.980469 114.03125 "/>
<path style=" stroke:none;fill-rule:nonzero;fill:rgb(32.54902%,5.882353%,9.803922%);fill-opacity:1;" d="M 75 113.625 L 75.375 114 Z M 75 113.625 "/>
<path style=" stroke:none;fill-rule:nonzero;fill:rgb(99.607843%,99.607843%,99.215686%);fill-opacity:1;" d="M 75.898438 114.03125 C 74.609375 114.851562 75.71875 117.113281 77.023438 116.21875 C 78.082031 115.488281 77.191406 113.210938 75.898438 114.03125 M 80.78125 114.050781 C 79.449219 114.824219 80.574219 117.054688 81.898438 116.160156 C 83.003906 115.417969 82.078125 113.296875 80.78125 114.050781 Z M 80.78125 114.050781 "/>
<path style=" stroke:none;fill-rule:nonzero;fill:rgb(97.254902%,85.490196%,12.941176%);fill-opacity:1;" d="M 81.75 113.625 L 82.125 114 L 81.75 113.625 M 84 113.625 L 84.375 114 L 84 113.625 M 87 113.625 L 87.375 114 L 87 113.625 M 97.125 113.625 L 97.5 114 Z M 97.125 113.625 "/>
<path style=" stroke:none;fill-rule:nonzero;fill:rgb(99.607843%,99.607843%,99.215686%);fill-opacity:1;" d="M 98.46875 114.03125 C 97.421875 114.773438 98.277344 117.105469 99.53125 116.21875 C 100.578125 115.476562 99.722656 113.144531 98.46875 114.03125 Z M 98.46875 114.03125 "/>
<path style=" stroke:none;fill-rule:nonzero;fill:rgb(97.254902%,85.490196%,12.941176%);fill-opacity:1;" d="M 54.75 114 L 55.125 114.375 Z M 54.75 114 "/>
<path style=" stroke:none;fill-rule:nonzero;fill:rgb(15.686275%,26.666667%,51.764706%);fill-opacity:1;" d="M 55.875 114 L 58.5 116.625 L 55.875 116.25 L 55.875 117 C 56.757812 116.96875 57.570312 117.734375 58.5 117.1875 C 60.921875 115.757812 56.921875 114.277344 55.875 114 Z M 55.875 114 "/>
<path style=" stroke:none;fill-rule:nonzero;fill:rgb(97.254902%,85.490196%,12.941176%);fill-opacity:1;" d="M 69.375 114 L 69.75 114.375 Z M 69.375 114 "/>
<path style=" stroke:none;fill-rule:nonzero;fill:rgb(32.54902%,5.882353%,9.803922%);fill-opacity:1;" d="M 69.75 114 L 70.125 114.375 Z M 69.75 114 "/>
<path style=" stroke:none;fill-rule:nonzero;fill:rgb(97.254902%,85.490196%,12.941176%);fill-opacity:1;" d="M 72.375 114 L 72.75 114.375 L 72.375 114 M 77.25 114 L 77.625 114.375 L 77.25 114 M 90.375 114 L 90.75 114.375 L 90.375 114 M 52.5 114.375 L 52.5 114.75 L 53.625 114.75 L 52.5 114.375 M 55.875 114.375 L 56.25 114.75 L 55.875 114.375 M 75 114.375 L 75.375 114.75 L 75 114.375 M 79.125 114.375 L 79.5 114.75 L 79.125 114.375 M 79.875 114.375 L 80.25 114.75 L 79.875 114.375 M 84 114.375 L 84.75 115.125 Z M 84 114.375 "/>
<path style=" stroke:none;fill-rule:nonzero;fill:rgb(32.54902%,5.882353%,9.803922%);fill-opacity:1;" d="M 84.375 114.375 L 84.75 114.75 Z M 84.375 114.375 "/>
<path style=" stroke:none;fill-rule:nonzero;fill:rgb(97.254902%,85.490196%,12.941176%);fill-opacity:1;" d="M 58.125 114.75 L 58.5 115.125 Z M 58.125 114.75 "/>
<path style=" stroke:none;fill-rule:nonzero;fill:rgb(32.54902%,5.882353%,9.803922%);fill-opacity:1;" d="M 85.125 114.75 L 85.5 115.125 Z M 85.125 114.75 "/>
<path style=" stroke:none;fill-rule:nonzero;fill:rgb(15.686275%,26.666667%,51.764706%);fill-opacity:1;" d="M 85.5 114.75 L 86.625 116.625 L 84.375 116.25 C 85.839844 118.496094 88.507812 115.667969 85.5 114.75 Z M 85.5 114.75 "/>
<path style=" stroke:none;fill-rule:nonzero;fill:rgb(97.254902%,85.490196%,12.941176%);fill-opacity:1;" d="M 96.75 114.75 L 97.125 115.125 L 96.75 114.75 M 97.625 115 L 97.75 115.25 Z M 97.625 115 "/>
<path style=" stroke:none;fill-rule:nonzero;fill:rgb(99.607843%,99.607843%,99.215686%);fill-opacity:1;" d="M 52.125 115.5 L 52.125 116.25 L 54.375 116.25 L 54.375 115.5 Z M 52.125 115.5 "/>
<path style=" stroke:none;fill-rule:nonzero;fill:rgb(97.254902%,85.490196%,12.941176%);fill-opacity:1;" d="M 85.125 115.125 L 85.5 115.5 L 85.125 115.125 M 54.75 115.5 L 55.125 115.875 L 54.75 115.5 M 86.25 115.5 L 86.625 115.875 L 86.25 115.5 M 90.5 115.75 L 90.625 116 L 90.5 115.75 M 69.375 115.875 L 69.75 116.25 L 69.375 115.875 M 72.375 115.875 L 72.75 116.25 L 72.375 115.875 M 79.125 115.875 L 79.5 116.25 L 79.125 115.875 M 51.375 116.25 L 51.75 116.625 L 51.375 116.25 M 52.125 116.25 L 52.5 116.625 L 52.125 116.25 M 54 116.25 L 54.375 116.625 L 54 116.25 M 70.5 116.25 L 70.875 116.625 L 70.5 116.25 M 72 116.25 L 72.375 116.625 Z M 72 116.25 "/>
<path style=" stroke:none;fill-rule:nonzero;fill:rgb(32.54902%,5.882353%,9.803922%);fill-opacity:1;" d="M 75 116.25 L 75.375 116.625 Z M 75 116.25 "/>
<path style=" stroke:none;fill-rule:nonzero;fill:rgb(97.254902%,85.490196%,12.941176%);fill-opacity:1;" d="M 75.375 116.25 L 75.75 116.625 L 75.375 116.25 M 81.75 116.25 L 82.125 116.625 L 81.75 116.25 M 84.125 116.5 L 84.25 116.75 L 84.125 116.5 M 102 116.25 L 102.375 116.625 Z M 102 116.25 "/>
<path style=" stroke:none;fill-rule:nonzero;fill:rgb(15.686275%,26.666667%,51.764706%);fill-opacity:1;" d="M 102.375 116.25 L 102 116.625 L 102 117 L 102.375 117.375 L 102.75 117.375 L 103.125 117 L 103.125 116.625 Z M 102.375 116.25 "/>
<path style=" stroke:none;fill-rule:nonzero;fill:rgb(32.54902%,5.882353%,9.803922%);fill-opacity:1;" d="M 47.25 116.625 L 47.625 117 Z M 47.25 116.625 "/>
<path style=" stroke:none;fill-rule:nonzero;fill:rgb(97.254902%,85.490196%,12.941176%);fill-opacity:1;" d="M 52.875 116.625 L 53.25 117 Z M 52.875 116.625 "/>
<path style=" stroke:none;fill-rule:nonzero;fill:rgb(32.54902%,5.882353%,9.803922%);fill-opacity:1;" d="M 54.375 116.625 L 54.75 117 L 54.375 116.625 M 56.25 116.625 L 56.625 117 Z M 56.25 116.625 "/>
<path style=" stroke:none;fill-rule:nonzero;fill:rgb(97.254902%,85.490196%,12.941176%);fill-opacity:1;" d="M 61.875 116.625 L 62.25 117 L 61.875 116.625 M 72.75 116.625 L 73.125 117 L 72.75 116.625 M 77.625 116.625 L 78 117 L 77.625 116.625 M 90.375 116.625 L 90.75 117 Z M 90.375 116.625 "/>
<path style=" stroke:none;fill-rule:nonzero;fill:rgb(32.54902%,5.882353%,9.803922%);fill-opacity:1;" d="M 90.75 116.625 L 91.125 117 Z M 90.75 116.625 "/>
<path style=" stroke:none;fill-rule:nonzero;fill:rgb(97.254902%,85.490196%,12.941176%);fill-opacity:1;" d="M 96.375 116.625 L 96.75 117 Z M 96.375 116.625 "/>
<path style=" stroke:none;fill-rule:nonzero;fill:rgb(32.54902%,5.882353%,9.803922%);fill-opacity:1;" d="M 102.375 116.625 L 102.75 117 Z M 102.375 116.625 "/>
<path style=" stroke:none;fill-rule:nonzero;fill:rgb(97.254902%,85.490196%,12.941176%);fill-opacity:1;" d="M 46.875 117 L 47.25 117.375 L 46.875 117 M 52.125 117 L 52.5 117.375 L 52.125 117 M 53.625 117 L 54 117.375 L 53.625 117 M 54.625 117.125 L 54.875 117.25 L 54.625 117.125 M 64.875 117 L 65.25 117.375 L 64.875 117 M 70.5 117 L 70.875 117.375 L 70.5 117 M 75.375 117 L 75.75 117.375 L 75.375 117 M 80.25 117 L 80.625 117.375 L 80.25 117 M 82.875 117 L 83.25 117.375 L 82.875 117 M 93.75 117 L 94.125 117.375 L 93.75 117 M 97.875 117 L 98.25 117.375 L 97.875 117 M 99.375 117 L 99.75 117.375 L 99.375 117 M 100.125 117 L 100.5 117.375 L 100.125 117 M 102 117 L 102.375 117.375 Z M 102 117 "/>
</g>
</svg>
