<?xml version="1.0" standalone="yes"?>
<svg xmlns="http://www.w3.org/2000/svg" width="400" height="400">
<path style="fill:#fefefd; stroke:none;" d="M0 0L0 400L400 400L400 0L0 0z"/>
<path style="fill:#f8da21; stroke:none;" d="M276.557 47.071C271.425 50.1375 268.685 61.7793 266.219 67C257.981 84.4416 249.378 101.748 240.753 119C239.658 121.191 229.282 141.201 237.873 139.168C243.557 137.823 248.081 123.684 250.81 119C262.247 99.3689 279.198 76.6578 286.012 55.0008C287.565 50.062 281.483 44.1279 276.557 47.071M309.015 61.1366C302.912 63.5695 297.519 73.9485 293.576 79C282.052 93.7616 269.918 108.063 258.626 123C255.371 127.305 250.077 131.843 248.248 136.985C247.279 139.711 248.755 142.721 252.004 142.033C258.28 140.704 264.84 129.505 268.925 125C278.459 114.488 287.253 103.285 297.039 93C303.481 86.228 313.114 78.4641 317.238 70C319.5 65.3595 313.952 59.1683 309.015 61.1366M296 149L297 152L298 152L296 149M80 150L80 154L81 154L80 150z"/>
<path style="fill:#c80808; stroke:none;" d="M81 150L82 169L296 170L296.817 151.603L283 150L245 150L81 150z"/>
<path style="fill:#f8da21; stroke:none;" d="M297 157L297 163L298 163L297 157M81 160L81 169L82 169L81 160M296 166L296 169L297 169L296 166M84 169L84 170L112 170L84 169M156 170L156 171L240 171L214 170L156 170M280 170L280 171L296 171L280 170M85 179L85 180L104 180L85 179z"/>
<path style="fill:#284484; stroke:none;" d="M85.3333 180.667L85.6667 181.333L85.3333 180.667z"/>
<path style="fill:#530f19; stroke:none;" d="M86 180C86.5794 192.65 95.4141 204.858 102.348 215C105.09 219.01 108.321 224.366 113.015 226.262C121.529 229.7 133.024 228 142 228C163.369 228 184.608 227 206 227L206 226L145 227L117.001 225.572L100 210L101 204L98 205L88 181L112 181L86 180z"/>
<path style="fill:#c80808; stroke:none;" d="M88 181C88.1934 187.514 93.1228 204.13 101 204L100 210L115.015 225.181L143 227L206 226L206 227L168 227L168 228L243 228C248.104 228 265.198 230.482 266 224C279.07 220.254 291.115 193.587 293 181L88 181z"/>
<path style="fill:#f8da21; stroke:none;" d="M224 180L224 181L293 181L271 180L224 180M85.3333 182.667L85.6667 183.333L85.3333 182.667M188 183L183 189L184 195L180 200C175.917 199.4 175.028 209.345 176.5 213C180.748 223.547 198.923 224.232 202.667 213C203.302 211.095 202.82 200.815 201 205L200 205C199.832 197.828 197.95 191.331 192 187L190 190L188 183M292 184L293 185L292 184z"/>
<path style="fill:#c80808; stroke:none;" d="M86 185L87 186L86 185z"/>
<path style="fill:#f8da21; stroke:none;" d="M86 186L87 187L86 186M291 187L292 188L291 187z"/>
<path style="fill:#284484; stroke:none;" d="M87 188L88 189L87 188z"/>
<path style="fill:#f8da21; stroke:none;" d="M87 189L88 190L87 189M290.333 189.667L290.667 190.333L290.333 189.667z"/>
<path style="fill:#284484; stroke:none;" d="M88 190L89 191L88 190z"/>
<path style="fill:#f8da21; stroke:none;" d="M88 191L89 192L88 191z"/>
<path style="fill:#530f19; stroke:none;" d="M183.333 192.667L183.667 193.333L183.333 192.667z"/>
<path style="fill:#f8da21; stroke:none;" d="M289 192L290 193L289 192M89 193L90 194L89 193z"/>
<path style="fill:#c80808; stroke:none;" d="M183 194L184 195L183 194z"/>
<path style="fill:#f8da21; stroke:none;" d="M288 194L289 195L288 194M90 195L91 196L90 195M287 196L288 197L287 196M91 197L92 198L91 197z"/>
<path style="fill:#c80808; stroke:none;" d="M92 198L93 199L92 198z"/>
<path style="fill:#530f19; stroke:none;" d="M179.333 198.667L179.667 199.333L179.333 198.667z"/>
<path style="fill:#f8da21; stroke:none;" d="M286 198L287 199L286 198M92 199L93 200L92 199M285 200L286 201L285 200M93 201L94 202L93 201z"/>
<path style="fill:#c80808; stroke:none;" d="M94 202L95 203L94 202z"/>
<path style="fill:#530f19; stroke:none;" d="M200.333 202.667L200.667 203.333L200.333 202.667z"/>
<path style="fill:#f8da21; stroke:none;" d="M284 202L285 203L284 202M94 203L95 204L94 203z"/>
<path style="fill:#530f19; stroke:none;" d="M176 203L177 204L176 203z"/>
<path style="fill:#284484; stroke:none;" d="M95 204L96 205L95 204z"/>
<path style="fill:#c80808; stroke:none;" d="M200 204L201 205L200 204z"/>
<path style="fill:#f8da21; stroke:none;" d="M283 204L284 205L283 204M282 205L283 206L282 205M96 206L97 207L96 206z"/>
<path style="fill:#c80808; stroke:none;" d="M97.3333 206.667L97.6667 207.333L97.3333 206.667z"/>
<path style="fill:#f8da21; stroke:none;" d="M281 207L282 208L281 207M98 209L99 210L98 209M280 209L281 210L280 209z"/>
<path style="fill:#c80808; stroke:none;" d="M99 210L100 211L99 210z"/>
<path style="fill:#f8da21; stroke:none;" d="M279 210L280 211L279 210M99 211L100 212L99 211M100 212L101 213L100 212z"/>
<path style="fill:#284484; stroke:none;" d="M101 213L102 214L101 213z"/>
<path style="fill:#f8da21; stroke:none;" d="M277 213L278 214L277 213M101 214L102 215L101 214z"/>
<path style="fill:#530f19; stroke:none;" d="M176 214C178.136 218.472 181.3 220.604 186 222L186 221L176 214z"/>
<path style="fill:#c80808; stroke:none;" d="M177 214L178 215L177 214z"/>
<path style="fill:#f8da21; stroke:none;" d="M276 214L277 215L276 214M102 215L103 216L102 215z"/>
<path style="fill:#c80808; stroke:none;" d="M103 216L104 217L103 216M178 216L179 217L178 216z"/>
<path style="fill:#f8da21; stroke:none;" d="M103 217L104 218L103 217z"/>
<path style="fill:#c80808; stroke:none;" d="M179 217L180 218L179 217z"/>
<path style="fill:#f8da21; stroke:none;" d="M274 217L275 218L274 217M104 218L105 219L104 218z"/>
<path style="fill:#c80808; stroke:none;" d="M180.667 218.333L181.333 218.667L180.667 218.333z"/>
<path style="fill:#530f19; stroke:none;" d="M200 218L201 219L200 218z"/>
<path style="fill:#f8da21; stroke:none;" d="M273 218L274 219L273 218M105 219L106 220L105 219z"/>
<path style="fill:#c80808; stroke:none;" d="M182 219L183 220L182 219z"/>
<path style="fill:#f8da21; stroke:none;" d="M272 219L273 220L272 219z"/>
<path style="fill:#284484; stroke:none;" d="M106 220L107 221L106 220z"/>
<path style="fill:#c80808; stroke:none;" d="M184.667 220.333L185.333 220.667L184.667 220.333M107 221L108 222L107 221z"/>
<path style="fill:#530f19; stroke:none;" d="M191 222L191 223L195 222L191 222M269 221L270 222L269 221z"/>
<path style="fill:#f8da21; stroke:none;" d="M271 221L272 222L271 221M107 222L108 223L107 222M270 222L271 223L270 222M108 223L109 224L108 223M269 223L270 224L269 223M109 224L110 225L109 224z"/>
<path style="fill:#530f19; stroke:none;" d="M266.667 224.333L267.333 224.667L266.667 224.333z"/>
<path style="fill:#f8da21; stroke:none;" d="M268 224L269 225L268 224M110 225L111 226L110 225z"/>
<path style="fill:#530f19; stroke:none;" d="M265 225L266 226L265 225z"/>
<path style="fill:#f8da21; stroke:none;" d="M267 225L268 226L267 225M111 226L112 227L111 226z"/>
<path style="fill:#c80808; stroke:none;" d="M112 226L113 227L112 226z"/>
<path style="fill:#f8da21; stroke:none;" d="M266 226L267 227L266 226M113.667 227.333L114.333 227.667L113.667 227.333z"/>
<path style="fill:#c80808; stroke:none;" d="M115 227L115 228L120 228L115 227z"/>
<path style="fill:#f8da21; stroke:none;" d="M262 227L262 228L266 228L262 227M248 235L249 236L248 235z"/>
<path style="fill:#284484; stroke:none;" d="M124 236L124 237L160 237C150.44 232.989 134.387 236 124 236z"/>
<path style="fill:#530f19; stroke:none;" d="M126 237C148.132 263.009 196.92 261.299 226 252L226 251C210.411 254.023 196.403 249.469 184 239L198 236L126 237z"/>
<path style="fill:#c80808; stroke:none;" d="M196 236L197 237L196 236M184 239C195.206 252.427 211.887 251.333 227 252L237 248L253 237L230 236L184 239z"/>
<path style="fill:#530f19; stroke:none;" d="M252 236L253 237L252 236z"/>
<path style="fill:#284484; stroke:none;" d="M253 236L254 237L253 236z"/>
<path style="fill:#f8da21; stroke:none;" d="M254 236L255 237L254 236M124 237L125 238L124 237M253 237L254 238L253 237M126 238L127 239L126 238M252 238L253 239L252 238M251 239L252 240L251 239M129 240L130 241L129 240M249 240L250 241L249 240z"/>
<path style="fill:#284484; stroke:none;" d="M131 241L132 242L131 241z"/>
<path style="fill:#f8da21; stroke:none;" d="M248 241L249 242L248 241M132 242L133 243L132 242M246 242L247 243L246 242z"/>
<path style="fill:#284484; stroke:none;" d="M134 243L135 244L134 243z"/>
<path style="fill:#f8da21; stroke:none;" d="M244 243L245 244L244 243M135 244L136 245L135 244z"/>
<path style="fill:#284484; stroke:none;" d="M136 244L137 245L136 244z"/>
<path style="fill:#f8da21; stroke:none;" d="M243 244L244 245L243 244z"/>
<path style="fill:#284484; stroke:none;" d="M137 245L138 246L137 245z"/>
<path style="fill:#f8da21; stroke:none;" d="M241 245L242 246L241 245z"/>
<path style="fill:#284484; stroke:none;" d="M139 246L140 247L139 246z"/>
<path style="fill:#530f19; stroke:none;" d="M237 246L238 247L237 246z"/>
<path style="fill:#f8da21; stroke:none;" d="M239 246L240 247L239 246z"/>
<path style="fill:#284484; stroke:none;" d="M141 247L142 248L141 247z"/>
<path style="fill:#530f19; stroke:none;" d="M232 248L232 249L236 248L232 248z"/>
<path style="fill:#f8da21; stroke:none;" d="M237 247L238 248L237 247M142 248L143 249L142 248z"/>
<path style="fill:#284484; stroke:none;" d="M143 248L144 249L143 248M234 248L235 249L234 248z"/>
<path style="fill:#f8da21; stroke:none;" d="M235 248L236 249L235 248M145 249L146 250L145 249M232.667 249.333L233.333 249.667L232.667 249.333M147 250L148 251L147 250z"/>
<path style="fill:#284484; stroke:none;" d="M148 250L149 251L148 250z"/>
<path style="fill:#530f19; stroke:none;" d="M227.667 250.333L228.333 250.667L227.667 250.333z"/>
<path style="fill:#f8da21; stroke:none;" d="M230 250L231 251L230 250z"/>
<path style="fill:#284484; stroke:none;" d="M150 251L151 252L150 251z"/>
<path style="fill:#f8da21; stroke:none;" d="M227.667 251.333L228.333 251.667L227.667 251.333M152 252L153 253L152 252z"/>
<path style="fill:#284484; stroke:none;" d="M153 252L154 253L153 252M224 252L225 253L224 252z"/>
<path style="fill:#f8da21; stroke:none;" d="M225 252L226 253L225 252M155 253L156 254L155 253z"/>
<path style="fill:#284484; stroke:none;" d="M156 253L157 254L156 253z"/>
<path style="fill:#c80808; stroke:none;" d="M221 253L222 254L221 253z"/>
<path style="fill:#f8da21; stroke:none;" d="M222 253L223 254L222 253M158.667 254.333L159.333 254.667L158.667 254.333z"/>
<path style="fill:#284484; stroke:none;" d="M217 254L218 255L217 254z"/>
<path style="fill:#f8da21; stroke:none;" d="M218.667 254.333L219.333 254.667L218.667 254.333M162 255L163 256L162 255z"/>
<path style="fill:#284484; stroke:none;" d="M163.667 255.333L164.333 255.667L163.667 255.333M213 255L214 256L213 255z"/>
<path style="fill:#f8da21; stroke:none;" d="M214.667 255.333L215.333 255.667L214.667 255.333M166.667 256.333L167.333 256.667L166.667 256.333z"/>
<path style="fill:#284484; stroke:none;" d="M168.667 256.333L169.333 256.667L168.667 256.333M208.667 256.333L209.333 256.667L208.667 256.333z"/>
<path style="fill:#f8da21; stroke:none;" d="M210.667 256.333L211.333 256.667L210.667 256.333M172.667 257.333L173.333 257.667L172.667 257.333z"/>
<path style="fill:#284484; stroke:none;" d="M174.667 257.333L175.333 257.667L174.667 257.333M202.667 257.333L203.333 257.667L202.667 257.333z"/>
<path style="fill:#f8da21; stroke:none;" d="M204.667 257.333L205.333 257.667L204.667 257.333M180 258L180 259L184 259L180 258z"/>
<path style="fill:#284484; stroke:none;" d="M184 258L184 259L192 259L184 258z"/>
<path style="fill:#f8da21; stroke:none;" d="M192 258L192 259L197 259L192 258z"/>
<path style="fill:#284484; stroke:none;" d="M102 282L102 283L92 282L91 286C104.257 292.38 110.839 278.677 95 275L95 273L104 274L105 273L105 271C100.864 269.01 87.4898 268.309 92.1983 276.772C93.9726 279.962 98.8401 280.82 102 282z"/>
<path style="fill:#f8da21; stroke:none;" d="M102 269L103 270L102 269z"/>
<path style="fill:#284484; stroke:none;" d="M201 269L201 288L205 288L205 281C209.915 280.986 222.436 276.287 213.566 270.179C210.377 267.983 204.68 269 201 269z"/>
<path style="fill:#f8da21; stroke:none;" d="M92 270L93 271L92 270M104 270L105 271L104 270M105 271L106 272L105 271M215 271L216 272L215 271M99 272L100 273L99 272z"/>
<path style="fill:#284484; stroke:none;" d="M109 272L109 288L120 288C118.657 283.954 115.935 284.047 112 284L112 282L120 282L120 278L112 278L112 276L120 276L120 272L109 272M137 286L137 284L136 283C132.218 283.878 122.173 281.157 129.167 276.812C131.263 275.51 134.637 276.326 137 276L137 274C118.454 266.143 119.554 294.394 137 286M144.044 272.746C134.646 276.436 140.544 290.875 149.981 287.393C160.084 283.665 153.636 268.98 144.044 272.746z"/>
<path style="fill:#f8da21; stroke:none;" d="M150 272L151 273L150 272z"/>
<path style="fill:#284484; stroke:none;" d="M158 272L158 288L162 288L162 279L163 279C165.291 283.595 167.716 287.167 173 288L173 272L169 272L169 281C165.902 276.694 163.502 272.856 158 272z"/>
<path style="fill:#f8da21; stroke:none;" d="M176 272L177 273L176 272z"/>
<path style="fill:#284484; stroke:none;" d="M177.603 273.028C170.599 278.557 178.292 293.253 187.852 286.258C196.484 279.941 185.031 267.164 177.603 273.028z"/>
<path style="fill:#f8da21; stroke:none;" d="M185 272L186 273L185 272z"/>
<path style="fill:#284484; stroke:none;" d="M215 288L231 288C230.464 284.423 227.772 271.172 222.231 272.752C217.962 273.969 215.888 284.252 215 288z"/>
<path style="fill:#f8da21; stroke:none;" d="M225 272L226 273L225 272M233 272L234 273L233 272z"/>
<path style="fill:#284484; stroke:none;" d="M237 288L237 283L246 288C245.222 284.076 247.275 279.646 246.15 276.109C241.677 262.035 222.939 283.333 237 288z"/>
<path style="fill:#f8da21; stroke:none;" d="M243 272L244 273L243 272M248 272L249 273L248 272z"/>
<path style="fill:#284484; stroke:none;" d="M248 273L248 275L253 276L253 288L256 288L256 276L261 276L261 272L248 273M263 272L263 288L267 288L267 279L268 279C270.291 283.595 272.716 287.167 278 288L278 272L274 272L274 281C270.971 276.569 268.566 272.861 263 272z"/>
<path style="fill:#f8da21; stroke:none;" d="M267 272L268 273L267 272M281 272L282 273L281 272z"/>
<path style="fill:#284484; stroke:none;" d="M293 288L293 284L285 284L285 282C288.935 281.953 291.657 282.046 293 278L285 278L285 276L293 276L293 272C290.073 272 285.051 271.089 282.603 273.028C279.964 275.119 279.964 284.881 282.603 286.972C285.051 288.911 290.073 288 293 288M296 272L296 288L300 288L300 283L309 288C305.42 277.154 311.227 272.002 296 272z"/>
<path style="fill:#f8da21; stroke:none;" d="M108 273L108 287L109 287L108 273M125 273L126 274L125 273M135 273L136 274L135 273M152 273L153 274L152 273z"/>
<path style="fill:#fefefd; stroke:none;" d="M205 273L205 277L212 277L212 273L205 273z"/>
<path style="fill:#f8da21; stroke:none;" d="M153 274L154 275L153 274M189 274L190 275L189 274M216.333 274.667L216.667 275.333L216.333 274.667M226 274L227 275L226 274M123 275L124 276L123 275M129 275L130 276L129 275z"/>
<path style="fill:#fefefd; stroke:none;" d="M146.129 275.971C141.508 277.123 142.989 285.247 147.871 284.029C152.492 282.877 151.011 274.753 146.129 275.971z"/>
<path style="fill:#f8da21; stroke:none;" d="M205 275L206 276L205 275M219 275L220 276L219 275M248 275L249 276L248 275M91 276L92 277L91 276M100 276L101 277L100 276M133 276L134 277L133 276M136 276L137 277L136 276M139 276L140 277L139 276z"/>
<path style="fill:#fefefd; stroke:none;" d="M180 276L180 284C188.365 283.725 188.366 276.275 180 276M237 276L237 279L243 278L237 276z"/>
<path style="fill:#f8da21; stroke:none;" d="M242 276L243 277L242 276M256 276L257 277L256 276z"/>
<path style="fill:#fefefd; stroke:none;" d="M300 276L300 279L305 279L305 276L300 276z"/>
<path style="fill:#f8da21; stroke:none;" d="M309.333 276.667L309.667 277.333L309.333 276.667M206 277L206 278L209 278L206 277z"/>
<path style="fill:#fefefd; stroke:none;" d="M223 277L221 282L225 282L223 277z"/>
<path style="fill:#f8da21; stroke:none;" d="M305 277L306 278L305 277M104 278L105 279L104 278M126 278L127 279L126 278M215 278L216 279L215 278M151.333 279.667L151.667 280.333L151.333 279.667M228 279L229 280L228 279M256 279L256 288L257 288L256 279M98 280L99 281L98 280M163 280L164 281L163 280M217 280L218 281L217 280M308 280L309 281L308 280M126 281L127 282L126 281M155 281L156 282L155 281M205 281L206 282L205 281M292 281L293 282L292 281M91 283L92 284L91 283M136 283L137 284L136 283M139 283L140 284L139 283M98 284L99 285L98 284M119 284L120 285L119 284M123 284L124 285L123 284M148 284L149 285L148 284M166 284L167 285L166 284M230 284L231 285L230 284M240 284L241 285L240 284M271 284L272 285L271 284M291 284L292 285L291 284M307 284L308 285L307 284M140 285L141 286L140 285M153 285L154 286L153 285M215 285L216 286L215 285M245 285L246 286L245 285M152 286L153 287L152 286M205 286L206 287L205 286M219 286L220 287L219 286M231.333 286.667L231.667 287.333L231.333 286.667M102 287L103 288L102 287M143 287L144 288L143 287M176 287L177 288L176 287M233 287L234 288L233 287M246 287L247 288L246 287M281 287L282 288L281 287M125 297L126 298L125 297z"/>
<path style="fill:#284484; stroke:none;" d="M126 313L127 313L127 306L135 306L135 304L127 304L127 299L135 299L135 297C124.426 297.008 123.14 303.324 126 313z"/>
<path style="fill:#f8da21; stroke:none;" d="M135.333 297.667L135.667 298.333L135.333 297.667M173 297L174 298L173 297z"/>
<path style="fill:#284484; stroke:none;" d="M174 313L175 313L175 306L183 306L183 304L175 304L175 299L183 299L183 297C172.426 297.008 171.14 303.324 174 313M220 297L220 302C208.83 299.945 210.158 312.169 221 313C222.439 308.133 223.18 301.197 220 297z"/>
<path style="fill:#f8da21; stroke:none;" d="M221 297L222 298L221 297z"/>
<path style="fill:#284484; stroke:none;" d="M242 297L242 313L251 312L251 311L244 311L242 297z"/>
<path style="fill:#f8da21; stroke:none;" d="M243 297L244 298L243 297M267 297L268 298L267 297z"/>
<path style="fill:#284484; stroke:none;" d="M268 297L267 302C261.861 301.049 255.284 306.185 260.603 311.244C262.631 313.173 266.417 312.688 269 313L268 297M161 298L159 302L165 313C163.391 308.8 162.731 306.086 165 302L161 298z"/>
<path style="fill:#f8da21; stroke:none;" d="M162 298L163 299L162 298M183 298L184 299L183 298M241 298L242 299L241 298z"/>
<path style="fill:#530f19; stroke:none;" d="M242.333 298.667L242.667 299.333L242.333 298.667z"/>
<path style="fill:#284484; stroke:none;" d="M253 298L251 302L257 313C255.391 308.8 254.731 306.086 257 302L253 298z"/>
<path style="fill:#f8da21; stroke:none;" d="M254 298L255 299L254 298M127 299L128 300L127 299M175 299L176 300L175 299z"/>
<path style="fill:#530f19; stroke:none;" d="M253 299L254 300L253 299z"/>
<path style="fill:#284484; stroke:none;" d="M138 304L145 306C134.395 306.126 138.369 312.268 147 312C146.742 307.268 143.81 295.811 138 304z"/>
<path style="fill:#f8da21; stroke:none;" d="M151 301L152 302L151 301z"/>
<path style="fill:#284484; stroke:none;" d="M150 302L150 303L157 304L150 302z"/>
<path style="fill:#f8da21; stroke:none;" d="M155 301L156 302L155 301M159 301L160 302L159 301M164 301L165 302L164 301M188 301L189 302L188 301z"/>
<path style="fill:#284484; stroke:none;" d="M186 303L187 305C182.816 308.824 189.408 314.82 193.682 311.381C200.365 306.004 191.814 300.342 186 303z"/>
<path style="fill:#f8da21; stroke:none;" d="M192 301L193 302L192 301M201 301L202 302L201 301z"/>
<path style="fill:#284484; stroke:none;" d="M202.108 301.851C195.866 303.766 198.577 314.108 204.945 312.288C211.354 310.456 208.642 299.847 202.108 301.851z"/>
<path style="fill:#f8da21; stroke:none;" d="M205 301L206 302L205 301M214 301L215 302L214 301M226 301L227 302L226 301z"/>
<path style="fill:#284484; stroke:none;" d="M224 304L224 305L226 307L227 307L226 304L232 304C229.554 300.581 226.909 301.512 224 304z"/>
<path style="fill:#f8da21; stroke:none;" d="M230 301L231 302L230 301M241 301L242 302L241 301M251 301L252 302L251 301M256 301L257 302L256 301M261 301L262 302L261 301M265 301L266 302L265 301M194 302L195 303L194 302M127 303L128 304L127 303M149 303L150 304L149 303z"/>
<path style="fill:#530f19; stroke:none;" d="M150 303L151 304L150 303z"/>
<path style="fill:#f8da21; stroke:none;" d="M151 303L152 304L151 303z"/>
<path style="fill:#fefefd; stroke:none;" d="M189.279 304.086C186.232 305.961 188.142 311.584 191.698 309.824C195.127 308.126 192.96 301.822 189.279 304.086z"/>
<path style="fill:#530f19; stroke:none;" d="M200 303L201 304L200 303z"/>
<path style="fill:#fefefd; stroke:none;" d="M202.394 304.086C198.958 306.275 201.915 312.306 205.397 309.914C208.222 307.973 205.841 301.891 202.394 304.086M215.419 304.137C211.864 306.203 214.861 312.147 218.4 309.763C221.34 307.783 218.876 302.127 215.419 304.137z"/>
<path style="fill:#f8da21; stroke:none;" d="M218 303L219 304L218 303M224 303L225 304L224 303M232 303L233 304L232 303M259 303L260 304L259 303z"/>
<path style="fill:#fefefd; stroke:none;" d="M262.585 304.086C259.793 306.06 262.068 312.28 265.415 309.914C268.207 307.94 265.932 301.72 262.585 304.086z"/>
<path style="fill:#f8da21; stroke:none;" d="M146 304L147 305L146 304z"/>
<path style="fill:#284484; stroke:none;" d="M149 304L156 311L149 310L149 311L149 312C151.356 311.916 153.525 313.961 156 312.5C162.461 308.687 151.794 304.735 149 304z"/>
<path style="fill:#f8da21; stroke:none;" d="M185 304L186 305L185 304z"/>
<path style="fill:#530f19; stroke:none;" d="M186 304L187 305L186 304z"/>
<path style="fill:#f8da21; stroke:none;" d="M193 304L194 305L193 304M206 304L207 305L206 304M241 304L242 305L241 304M140 305L140 306L143 306L140 305M149 305L150 306L149 305M200 305L201 306L200 305M211 305L212 306L211 305M213 305L214 306L213 305M224 305L226 307L224 305z"/>
<path style="fill:#530f19; stroke:none;" d="M225 305L226 306L225 305z"/>
<path style="fill:#f8da21; stroke:none;" d="M155 306L156 307L155 306z"/>
<path style="fill:#530f19; stroke:none;" d="M227 306L228 307L227 306z"/>
<path style="fill:#284484; stroke:none;" d="M228 306L231 311L225 310C228.904 315.994 236.019 308.443 228 306z"/>
<path style="fill:#f8da21; stroke:none;" d="M258 306L259 307L258 306M260.333 306.667L260.667 307.333L260.333 306.667z"/>
<path style="fill:#fefefd; stroke:none;" d="M139 308L139 310L145 310L145 308L139 308z"/>
<path style="fill:#f8da21; stroke:none;" d="M227 307L228 308L227 307M146 308L147 309L146 308M230 308L231 309L230 308M241.333 308.667L241.667 309.333L241.333 308.667M185 309L186 310L185 309M193 309L194 310L193 309M211 309L212 310L211 309M137 310L138 311L137 310M139 310L140 311L139 310M144 310L145 311L144 310M188 310L189 311L188 310M192 310L193 311L192 310z"/>
<path style="fill:#530f19; stroke:none;" d="M200 310L201 311L200 310z"/>
<path style="fill:#f8da21; stroke:none;" d="M201 310L202 311L201 310M218 310L219 311L218 310M224.333 310.667L224.667 311.333L224.333 310.667M272 310L273 311L272 310z"/>
<path style="fill:#284484; stroke:none;" d="M273 310L272 311L272 312L273 313L274 313L275 312L275 311L273 310z"/>
<path style="fill:#530f19; stroke:none;" d="M126 311L127 312L126 311z"/>
<path style="fill:#f8da21; stroke:none;" d="M141 311L142 312L141 311z"/>
<path style="fill:#530f19; stroke:none;" d="M145 311L146 312L145 311M150 311L151 312L150 311z"/>
<path style="fill:#f8da21; stroke:none;" d="M165 311L166 312L165 311M194 311L195 312L194 311M207 311L208 312L207 311M241 311L242 312L241 311z"/>
<path style="fill:#530f19; stroke:none;" d="M242 311L243 312L242 311z"/>
<path style="fill:#f8da21; stroke:none;" d="M257 311L258 312L257 311z"/>
<path style="fill:#530f19; stroke:none;" d="M273 311L274 312L273 311z"/>
<path style="fill:#f8da21; stroke:none;" d="M125 312L126 313L125 312M139 312L140 313L139 312M143 312L144 313L143 312M145.667 312.333L146.333 312.667L145.667 312.333M173 312L174 313L173 312M188 312L189 313L188 312M201 312L202 313L201 312M214 312L215 313L214 312M221 312L222 313L221 312M250 312L251 313L250 312M261 312L262 313L261 312M265 312L266 313L265 312M267 312L268 313L267 312M272 312L273 313L272 312z"/>
</svg>
