<?xml version="1.0" encoding="UTF-8"?>
<svg xmlns="http://www.w3.org/2000/svg" xmlns:xlink="http://www.w3.org/1999/xlink" width="1024px" height="1024px" viewBox="0 0 1024 1024" version="1.1">
<g id="surface1">
<rect x="0" y="0" width="1024" height="1024" style="fill:rgb(99.607843%,99.607843%,99.215686%);fill-opacity:1;stroke:none;"/>
<path style=" stroke:none;fill-rule:nonzero;fill:rgb(97.254902%,85.490196%,12.941176%);fill-opacity:1;" d="M 707.984375 120.5 C 694.847656 128.351562 687.832031 158.15625 681.519531 171.519531 C 660.429688 216.171875 638.40625 260.476562 616.328125 304.640625 C 613.523438 310.25 586.960938 361.472656 608.953125 356.269531 C 623.507812 352.828125 635.085938 316.632812 642.074219 304.640625 C 671.351562 254.382812 714.746094 196.242188 732.191406 140.800781 C 736.167969 128.160156 720.597656 112.96875 707.984375 120.5 M 791.078125 156.507812 C 775.453125 162.738281 761.648438 189.308594 751.554688 202.238281 C 722.054688 240.03125 690.988281 276.640625 662.082031 314.878906 C 653.75 325.902344 640.195312 337.519531 635.515625 350.679688 C 633.035156 357.660156 636.8125 365.367188 645.128906 363.605469 C 661.195312 360.203125 677.992188 331.53125 688.449219 320 C 712.855469 293.089844 735.367188 264.410156 760.417969 238.078125 C 776.910156 220.742188 801.570312 200.867188 812.128906 179.199219 C 817.921875 167.320312 803.71875 151.472656 791.078125 156.507812 M 757.761719 381.441406 L 760.320312 389.121094 L 762.878906 389.121094 L 757.761719 381.441406 M 204.800781 384 L 204.800781 394.238281 L 207.359375 394.238281 Z M 204.800781 384 "/>
<path style=" stroke:none;fill-rule:nonzero;fill:rgb(78.431373%,3.137255%,3.137255%);fill-opacity:1;" d="M 207.359375 384 L 209.921875 432.640625 L 757.761719 435.199219 L 759.851562 388.105469 L 724.480469 384 Z M 207.359375 384 "/>
<path style=" stroke:none;fill-rule:nonzero;fill:rgb(97.254902%,85.490196%,12.941176%);fill-opacity:1;" d="M 760.320312 401.921875 L 760.320312 417.28125 L 762.878906 417.28125 L 760.320312 401.921875 M 207.359375 409.601562 L 207.359375 432.640625 L 209.921875 432.640625 L 207.359375 409.601562 M 757.761719 424.960938 L 757.761719 432.640625 L 760.320312 432.640625 L 757.761719 424.960938 M 215.039062 432.640625 L 215.039062 435.199219 L 286.71875 435.199219 L 215.039062 432.640625 M 399.359375 435.199219 L 399.359375 437.761719 L 614.398438 437.761719 L 547.839844 435.199219 L 399.359375 435.199219 M 716.800781 435.199219 L 716.800781 437.761719 L 757.761719 437.761719 L 716.800781 435.199219 M 217.601562 458.238281 L 217.601562 460.800781 L 266.238281 460.800781 Z M 217.601562 458.238281 "/>
<path style=" stroke:none;fill-rule:nonzero;fill:rgb(15.686275%,26.666667%,51.764706%);fill-opacity:1;" d="M 218.453125 462.507812 L 219.308594 464.210938 Z M 218.453125 462.507812 "/>
<path style=" stroke:none;fill-rule:nonzero;fill:rgb(32.54902%,5.882353%,9.803922%);fill-opacity:1;" d="M 220.160156 460.800781 C 221.644531 493.183594 244.261719 524.4375 262.011719 550.398438 C 269.03125 560.664062 277.300781 574.378906 289.320312 579.230469 C 311.113281 588.03125 340.542969 583.679688 363.519531 583.679688 C 418.226562 583.679688 472.597656 581.121094 527.359375 581.121094 L 527.359375 578.558594 L 371.199219 581.121094 L 299.523438 577.464844 L 256 537.601562 L 258.558594 522.238281 L 250.878906 524.800781 L 225.28125 463.359375 L 286.71875 463.359375 Z M 220.160156 460.800781 "/>
<path style=" stroke:none;fill-rule:nonzero;fill:rgb(78.431373%,3.137255%,3.137255%);fill-opacity:1;" d="M 225.28125 463.359375 C 225.773438 480.035156 238.394531 522.574219 258.558594 522.238281 L 256 537.601562 L 294.4375 576.464844 L 366.078125 581.121094 L 527.359375 578.558594 L 527.359375 581.121094 L 430.078125 581.121094 L 430.078125 583.679688 L 622.078125 583.679688 C 635.144531 583.679688 678.90625 590.035156 680.960938 573.441406 C 714.417969 563.851562 745.253906 495.582031 750.078125 463.359375 Z M 225.28125 463.359375 "/>
<path style=" stroke:none;fill-rule:nonzero;fill:rgb(97.254902%,85.490196%,12.941176%);fill-opacity:1;" d="M 573.441406 460.800781 L 573.441406 463.359375 L 750.078125 463.359375 L 693.761719 460.800781 L 573.441406 460.800781 M 218.453125 467.628906 L 219.308594 469.332031 L 218.453125 467.628906 M 481.28125 468.480469 L 468.480469 483.839844 L 471.039062 499.199219 L 460.800781 512 C 450.347656 510.464844 448.070312 535.921875 451.839844 545.28125 C 462.714844 572.28125 509.242188 574.035156 518.828125 545.28125 C 520.453125 540.402344 519.21875 514.085938 514.558594 524.800781 L 512 524.800781 C 511.570312 506.441406 506.753906 489.808594 491.519531 478.71875 L 486.398438 486.398438 L 481.28125 468.480469 M 747.519531 471.039062 L 750.078125 473.601562 Z M 747.519531 471.039062 "/>
<path style=" stroke:none;fill-rule:nonzero;fill:rgb(78.431373%,3.137255%,3.137255%);fill-opacity:1;" d="M 220.160156 473.601562 L 222.71875 476.160156 Z M 220.160156 473.601562 "/>
<path style=" stroke:none;fill-rule:nonzero;fill:rgb(97.254902%,85.490196%,12.941176%);fill-opacity:1;" d="M 220.160156 476.160156 L 222.71875 478.71875 L 220.160156 476.160156 M 744.960938 478.71875 L 747.519531 481.28125 Z M 744.960938 478.71875 "/>
<path style=" stroke:none;fill-rule:nonzero;fill:rgb(15.686275%,26.666667%,51.764706%);fill-opacity:1;" d="M 222.71875 481.28125 L 225.28125 483.839844 Z M 222.71875 481.28125 "/>
<path style=" stroke:none;fill-rule:nonzero;fill:rgb(97.254902%,85.490196%,12.941176%);fill-opacity:1;" d="M 222.71875 483.839844 L 225.28125 486.398438 L 222.71875 483.839844 M 743.253906 485.546875 L 744.109375 487.253906 Z M 743.253906 485.546875 "/>
<path style=" stroke:none;fill-rule:nonzero;fill:rgb(15.686275%,26.666667%,51.764706%);fill-opacity:1;" d="M 225.28125 486.398438 L 227.839844 488.960938 Z M 225.28125 486.398438 "/>
<path style=" stroke:none;fill-rule:nonzero;fill:rgb(97.254902%,85.490196%,12.941176%);fill-opacity:1;" d="M 225.28125 488.960938 L 227.839844 491.519531 Z M 225.28125 488.960938 "/>
<path style=" stroke:none;fill-rule:nonzero;fill:rgb(32.54902%,5.882353%,9.803922%);fill-opacity:1;" d="M 469.332031 493.226562 L 470.1875 494.933594 Z M 469.332031 493.226562 "/>
<path style=" stroke:none;fill-rule:nonzero;fill:rgb(97.254902%,85.490196%,12.941176%);fill-opacity:1;" d="M 739.839844 491.519531 L 742.398438 494.078125 L 739.839844 491.519531 M 227.839844 494.078125 L 230.398438 496.640625 Z M 227.839844 494.078125 "/>
<path style=" stroke:none;fill-rule:nonzero;fill:rgb(78.431373%,3.137255%,3.137255%);fill-opacity:1;" d="M 468.480469 496.640625 L 471.039062 499.199219 Z M 468.480469 496.640625 "/>
<path style=" stroke:none;fill-rule:nonzero;fill:rgb(97.254902%,85.490196%,12.941176%);fill-opacity:1;" d="M 737.28125 496.640625 L 739.839844 499.199219 L 737.28125 496.640625 M 230.398438 499.199219 L 232.960938 501.761719 L 230.398438 499.199219 M 734.71875 501.761719 L 737.28125 504.320312 L 734.71875 501.761719 M 232.960938 504.320312 L 235.519531 506.878906 Z M 232.960938 504.320312 "/>
<path style=" stroke:none;fill-rule:nonzero;fill:rgb(78.431373%,3.137255%,3.137255%);fill-opacity:1;" d="M 235.519531 506.878906 L 238.078125 509.441406 Z M 235.519531 506.878906 "/>
<path style=" stroke:none;fill-rule:nonzero;fill:rgb(32.54902%,5.882353%,9.803922%);fill-opacity:1;" d="M 459.09375 508.585938 L 459.949219 510.292969 Z M 459.09375 508.585938 "/>
<path style=" stroke:none;fill-rule:nonzero;fill:rgb(97.254902%,85.490196%,12.941176%);fill-opacity:1;" d="M 732.160156 506.878906 L 734.71875 509.441406 L 732.160156 506.878906 M 235.519531 509.441406 L 238.078125 512 L 235.519531 509.441406 M 729.601562 512 L 732.160156 514.558594 L 729.601562 512 M 238.078125 514.558594 L 240.640625 517.121094 Z M 238.078125 514.558594 "/>
<path style=" stroke:none;fill-rule:nonzero;fill:rgb(78.431373%,3.137255%,3.137255%);fill-opacity:1;" d="M 240.640625 517.121094 L 243.199219 519.679688 Z M 240.640625 517.121094 "/>
<path style=" stroke:none;fill-rule:nonzero;fill:rgb(32.54902%,5.882353%,9.803922%);fill-opacity:1;" d="M 512.851562 518.828125 L 513.707031 520.53125 Z M 512.851562 518.828125 "/>
<path style=" stroke:none;fill-rule:nonzero;fill:rgb(97.254902%,85.490196%,12.941176%);fill-opacity:1;" d="M 727.039062 517.121094 L 729.601562 519.679688 L 727.039062 517.121094 M 240.640625 519.679688 L 243.199219 522.238281 Z M 240.640625 519.679688 "/>
<path style=" stroke:none;fill-rule:nonzero;fill:rgb(32.54902%,5.882353%,9.803922%);fill-opacity:1;" d="M 450.558594 519.679688 L 453.121094 522.238281 Z M 450.558594 519.679688 "/>
<path style=" stroke:none;fill-rule:nonzero;fill:rgb(15.686275%,26.666667%,51.764706%);fill-opacity:1;" d="M 243.199219 522.238281 L 245.761719 524.800781 Z M 243.199219 522.238281 "/>
<path style=" stroke:none;fill-rule:nonzero;fill:rgb(78.431373%,3.137255%,3.137255%);fill-opacity:1;" d="M 512 522.238281 L 514.558594 524.800781 Z M 512 522.238281 "/>
<path style=" stroke:none;fill-rule:nonzero;fill:rgb(97.254902%,85.490196%,12.941176%);fill-opacity:1;" d="M 724.480469 522.238281 L 727.039062 524.800781 L 724.480469 522.238281 M 721.921875 524.800781 L 724.480469 527.359375 L 721.921875 524.800781 M 245.761719 527.359375 L 248.320312 529.921875 Z M 245.761719 527.359375 "/>
<path style=" stroke:none;fill-rule:nonzero;fill:rgb(78.431373%,3.137255%,3.137255%);fill-opacity:1;" d="M 249.171875 529.066406 L 250.027344 530.773438 Z M 249.171875 529.066406 "/>
<path style=" stroke:none;fill-rule:nonzero;fill:rgb(97.254902%,85.490196%,12.941176%);fill-opacity:1;" d="M 719.359375 529.921875 L 721.921875 532.480469 L 719.359375 529.921875 M 250.878906 535.039062 L 253.441406 537.601562 L 250.878906 535.039062 M 716.800781 535.039062 L 719.359375 537.601562 Z M 716.800781 535.039062 "/>
<path style=" stroke:none;fill-rule:nonzero;fill:rgb(78.431373%,3.137255%,3.137255%);fill-opacity:1;" d="M 253.441406 537.601562 L 256 540.160156 Z M 253.441406 537.601562 "/>
<path style=" stroke:none;fill-rule:nonzero;fill:rgb(97.254902%,85.490196%,12.941176%);fill-opacity:1;" d="M 714.238281 537.601562 L 716.800781 540.160156 L 714.238281 537.601562 M 253.441406 540.160156 L 256 542.71875 L 253.441406 540.160156 M 256 542.71875 L 258.558594 545.28125 Z M 256 542.71875 "/>
<path style=" stroke:none;fill-rule:nonzero;fill:rgb(15.686275%,26.666667%,51.764706%);fill-opacity:1;" d="M 258.558594 545.28125 L 261.121094 547.839844 Z M 258.558594 545.28125 "/>
<path style=" stroke:none;fill-rule:nonzero;fill:rgb(97.254902%,85.490196%,12.941176%);fill-opacity:1;" d="M 709.121094 545.28125 L 711.679688 547.839844 L 709.121094 545.28125 M 258.558594 547.839844 L 261.121094 550.398438 Z M 258.558594 547.839844 "/>
<path style=" stroke:none;fill-rule:nonzero;fill:rgb(32.54902%,5.882353%,9.803922%);fill-opacity:1;" d="M 450.558594 547.839844 C 456.027344 559.289062 464.128906 564.746094 476.160156 568.320312 L 476.160156 565.761719 Z M 450.558594 547.839844 "/>
<path style=" stroke:none;fill-rule:nonzero;fill:rgb(78.431373%,3.137255%,3.137255%);fill-opacity:1;" d="M 453.121094 547.839844 L 455.679688 550.398438 Z M 453.121094 547.839844 "/>
<path style=" stroke:none;fill-rule:nonzero;fill:rgb(97.254902%,85.490196%,12.941176%);fill-opacity:1;" d="M 706.558594 547.839844 L 709.121094 550.398438 L 706.558594 547.839844 M 261.121094 550.398438 L 263.679688 552.960938 Z M 261.121094 550.398438 "/>
<path style=" stroke:none;fill-rule:nonzero;fill:rgb(78.431373%,3.137255%,3.137255%);fill-opacity:1;" d="M 263.679688 552.960938 L 266.238281 555.519531 L 263.679688 552.960938 M 455.679688 552.960938 L 458.238281 555.519531 Z M 455.679688 552.960938 "/>
<path style=" stroke:none;fill-rule:nonzero;fill:rgb(97.254902%,85.490196%,12.941176%);fill-opacity:1;" d="M 263.679688 555.519531 L 266.238281 558.078125 Z M 263.679688 555.519531 "/>
<path style=" stroke:none;fill-rule:nonzero;fill:rgb(78.431373%,3.137255%,3.137255%);fill-opacity:1;" d="M 458.238281 555.519531 L 460.800781 558.078125 Z M 458.238281 555.519531 "/>
<path style=" stroke:none;fill-rule:nonzero;fill:rgb(97.254902%,85.490196%,12.941176%);fill-opacity:1;" d="M 701.441406 555.519531 L 704 558.078125 L 701.441406 555.519531 M 266.238281 558.078125 L 268.800781 560.640625 Z M 266.238281 558.078125 "/>
<path style=" stroke:none;fill-rule:nonzero;fill:rgb(78.431373%,3.137255%,3.137255%);fill-opacity:1;" d="M 462.507812 558.933594 L 464.210938 559.789062 Z M 462.507812 558.933594 "/>
<path style=" stroke:none;fill-rule:nonzero;fill:rgb(32.54902%,5.882353%,9.803922%);fill-opacity:1;" d="M 512 558.078125 L 514.558594 560.640625 Z M 512 558.078125 "/>
<path style=" stroke:none;fill-rule:nonzero;fill:rgb(97.254902%,85.490196%,12.941176%);fill-opacity:1;" d="M 698.878906 558.078125 L 701.441406 560.640625 L 698.878906 558.078125 M 268.800781 560.640625 L 271.359375 563.199219 Z M 268.800781 560.640625 "/>
<path style=" stroke:none;fill-rule:nonzero;fill:rgb(78.431373%,3.137255%,3.137255%);fill-opacity:1;" d="M 465.921875 560.640625 L 468.480469 563.199219 Z M 465.921875 560.640625 "/>
<path style=" stroke:none;fill-rule:nonzero;fill:rgb(97.254902%,85.490196%,12.941176%);fill-opacity:1;" d="M 696.320312 560.640625 L 698.878906 563.199219 Z M 696.320312 560.640625 "/>
<path style=" stroke:none;fill-rule:nonzero;fill:rgb(15.686275%,26.666667%,51.764706%);fill-opacity:1;" d="M 271.359375 563.199219 L 273.921875 565.761719 Z M 271.359375 563.199219 "/>
<path style=" stroke:none;fill-rule:nonzero;fill:rgb(78.431373%,3.137255%,3.137255%);fill-opacity:1;" d="M 472.746094 564.050781 L 474.453125 564.90625 L 472.746094 564.050781 M 273.921875 565.761719 L 276.480469 568.320312 Z M 273.921875 565.761719 "/>
<path style=" stroke:none;fill-rule:nonzero;fill:rgb(32.54902%,5.882353%,9.803922%);fill-opacity:1;" d="M 488.960938 568.320312 L 488.960938 570.878906 L 499.199219 568.320312 L 488.960938 568.320312 M 688.640625 565.761719 L 691.199219 568.320312 Z M 688.640625 565.761719 "/>
<path style=" stroke:none;fill-rule:nonzero;fill:rgb(97.254902%,85.490196%,12.941176%);fill-opacity:1;" d="M 693.761719 565.761719 L 696.320312 568.320312 L 693.761719 565.761719 M 273.921875 568.320312 L 276.480469 570.878906 L 273.921875 568.320312 M 691.199219 568.320312 L 693.761719 570.878906 L 691.199219 568.320312 M 276.480469 570.878906 L 279.039062 573.441406 L 276.480469 570.878906 M 688.640625 570.878906 L 691.199219 573.441406 L 688.640625 570.878906 M 279.039062 573.441406 L 281.601562 576 Z M 279.039062 573.441406 "/>
<path style=" stroke:none;fill-rule:nonzero;fill:rgb(32.54902%,5.882353%,9.803922%);fill-opacity:1;" d="M 682.667969 574.292969 L 684.371094 575.148438 Z M 682.667969 574.292969 "/>
<path style=" stroke:none;fill-rule:nonzero;fill:rgb(97.254902%,85.490196%,12.941176%);fill-opacity:1;" d="M 686.078125 573.441406 L 688.640625 576 L 686.078125 573.441406 M 281.601562 576 L 284.160156 578.558594 Z M 281.601562 576 "/>
<path style=" stroke:none;fill-rule:nonzero;fill:rgb(32.54902%,5.882353%,9.803922%);fill-opacity:1;" d="M 678.398438 576 L 680.960938 578.558594 Z M 678.398438 576 "/>
<path style=" stroke:none;fill-rule:nonzero;fill:rgb(97.254902%,85.490196%,12.941176%);fill-opacity:1;" d="M 683.519531 576 L 686.078125 578.558594 L 683.519531 576 M 284.160156 578.558594 L 286.71875 581.121094 Z M 284.160156 578.558594 "/>
<path style=" stroke:none;fill-rule:nonzero;fill:rgb(78.431373%,3.137255%,3.137255%);fill-opacity:1;" d="M 286.71875 578.558594 L 289.28125 581.121094 Z M 286.71875 578.558594 "/>
<path style=" stroke:none;fill-rule:nonzero;fill:rgb(97.254902%,85.490196%,12.941176%);fill-opacity:1;" d="M 680.960938 578.558594 L 683.519531 581.121094 L 680.960938 578.558594 M 290.988281 581.972656 L 292.691406 582.828125 Z M 290.988281 581.972656 "/>
<path style=" stroke:none;fill-rule:nonzero;fill:rgb(78.431373%,3.137255%,3.137255%);fill-opacity:1;" d="M 294.398438 581.121094 L 294.398438 583.679688 L 307.199219 583.679688 Z M 294.398438 581.121094 "/>
<path style=" stroke:none;fill-rule:nonzero;fill:rgb(97.254902%,85.490196%,12.941176%);fill-opacity:1;" d="M 670.71875 581.121094 L 670.71875 583.679688 L 680.960938 583.679688 L 670.71875 581.121094 M 634.878906 601.601562 L 637.441406 604.160156 Z M 634.878906 601.601562 "/>
<path style=" stroke:none;fill-rule:nonzero;fill:rgb(15.686275%,26.666667%,51.764706%);fill-opacity:1;" d="M 317.441406 604.160156 L 317.441406 606.71875 L 409.601562 606.71875 C 385.125 596.453125 344.03125 604.160156 317.441406 604.160156 Z M 317.441406 604.160156 "/>
<path style=" stroke:none;fill-rule:nonzero;fill:rgb(32.54902%,5.882353%,9.803922%);fill-opacity:1;" d="M 322.558594 606.71875 C 379.21875 673.304688 504.113281 668.925781 578.558594 645.121094 L 578.558594 642.558594 C 538.652344 650.300781 502.792969 638.640625 471.039062 611.839844 L 506.878906 604.160156 Z M 322.558594 606.71875 "/>
<path style=" stroke:none;fill-rule:nonzero;fill:rgb(78.431373%,3.137255%,3.137255%);fill-opacity:1;" d="M 501.761719 604.160156 L 504.320312 606.71875 L 501.761719 604.160156 M 471.039062 611.839844 C 499.726562 646.214844 542.429688 643.414062 581.121094 645.121094 L 606.71875 634.878906 L 647.679688 606.71875 L 588.800781 604.160156 Z M 471.039062 611.839844 "/>
<path style=" stroke:none;fill-rule:nonzero;fill:rgb(32.54902%,5.882353%,9.803922%);fill-opacity:1;" d="M 645.121094 604.160156 L 647.679688 606.71875 Z M 645.121094 604.160156 "/>
<path style=" stroke:none;fill-rule:nonzero;fill:rgb(15.686275%,26.666667%,51.764706%);fill-opacity:1;" d="M 647.679688 604.160156 L 650.238281 606.71875 Z M 647.679688 604.160156 "/>
<path style=" stroke:none;fill-rule:nonzero;fill:rgb(97.254902%,85.490196%,12.941176%);fill-opacity:1;" d="M 650.238281 604.160156 L 652.800781 606.71875 L 650.238281 604.160156 M 317.441406 606.71875 L 320 609.28125 L 317.441406 606.71875 M 647.679688 606.71875 L 650.238281 609.28125 L 647.679688 606.71875 M 322.558594 609.28125 L 325.121094 611.839844 L 322.558594 609.28125 M 645.121094 609.28125 L 647.679688 611.839844 L 645.121094 609.28125 M 642.558594 611.839844 L 645.121094 614.398438 L 642.558594 611.839844 M 330.238281 614.398438 L 332.800781 616.960938 L 330.238281 614.398438 M 637.441406 614.398438 L 640 616.960938 Z M 637.441406 614.398438 "/>
<path style=" stroke:none;fill-rule:nonzero;fill:rgb(15.686275%,26.666667%,51.764706%);fill-opacity:1;" d="M 335.359375 616.960938 L 337.921875 619.519531 Z M 335.359375 616.960938 "/>
<path style=" stroke:none;fill-rule:nonzero;fill:rgb(97.254902%,85.490196%,12.941176%);fill-opacity:1;" d="M 634.878906 616.960938 L 637.441406 619.519531 L 634.878906 616.960938 M 337.921875 619.519531 L 340.480469 622.078125 L 337.921875 619.519531 M 629.761719 619.519531 L 632.320312 622.078125 Z M 629.761719 619.519531 "/>
<path style=" stroke:none;fill-rule:nonzero;fill:rgb(15.686275%,26.666667%,51.764706%);fill-opacity:1;" d="M 343.039062 622.078125 L 345.601562 624.640625 Z M 343.039062 622.078125 "/>
<path style=" stroke:none;fill-rule:nonzero;fill:rgb(97.254902%,85.490196%,12.941176%);fill-opacity:1;" d="M 624.640625 622.078125 L 627.199219 624.640625 L 624.640625 622.078125 M 345.601562 624.640625 L 348.160156 627.199219 Z M 345.601562 624.640625 "/>
<path style=" stroke:none;fill-rule:nonzero;fill:rgb(15.686275%,26.666667%,51.764706%);fill-opacity:1;" d="M 348.160156 624.640625 L 350.71875 627.199219 Z M 348.160156 624.640625 "/>
<path style=" stroke:none;fill-rule:nonzero;fill:rgb(97.254902%,85.490196%,12.941176%);fill-opacity:1;" d="M 622.078125 624.640625 L 624.640625 627.199219 Z M 622.078125 624.640625 "/>
<path style=" stroke:none;fill-rule:nonzero;fill:rgb(15.686275%,26.666667%,51.764706%);fill-opacity:1;" d="M 350.71875 627.199219 L 353.28125 629.761719 Z M 350.71875 627.199219 "/>
<path style=" stroke:none;fill-rule:nonzero;fill:rgb(97.254902%,85.490196%,12.941176%);fill-opacity:1;" d="M 616.960938 627.199219 L 619.519531 629.761719 Z M 616.960938 627.199219 "/>
<path style=" stroke:none;fill-rule:nonzero;fill:rgb(15.686275%,26.666667%,51.764706%);fill-opacity:1;" d="M 355.839844 629.761719 L 358.398438 632.320312 Z M 355.839844 629.761719 "/>
<path style=" stroke:none;fill-rule:nonzero;fill:rgb(32.54902%,5.882353%,9.803922%);fill-opacity:1;" d="M 606.71875 629.761719 L 609.28125 632.320312 Z M 606.71875 629.761719 "/>
<path style=" stroke:none;fill-rule:nonzero;fill:rgb(97.254902%,85.490196%,12.941176%);fill-opacity:1;" d="M 611.839844 629.761719 L 614.398438 632.320312 Z M 611.839844 629.761719 "/>
<path style=" stroke:none;fill-rule:nonzero;fill:rgb(15.686275%,26.666667%,51.764706%);fill-opacity:1;" d="M 360.960938 632.320312 L 363.519531 634.878906 Z M 360.960938 632.320312 "/>
<path style=" stroke:none;fill-rule:nonzero;fill:rgb(32.54902%,5.882353%,9.803922%);fill-opacity:1;" d="M 593.921875 634.878906 L 593.921875 637.441406 L 604.160156 634.878906 Z M 593.921875 634.878906 "/>
<path style=" stroke:none;fill-rule:nonzero;fill:rgb(97.254902%,85.490196%,12.941176%);fill-opacity:1;" d="M 606.71875 632.320312 L 609.28125 634.878906 L 606.71875 632.320312 M 363.519531 634.878906 L 366.078125 637.441406 Z M 363.519531 634.878906 "/>
<path style=" stroke:none;fill-rule:nonzero;fill:rgb(15.686275%,26.666667%,51.764706%);fill-opacity:1;" d="M 366.078125 634.878906 L 368.640625 637.441406 L 366.078125 634.878906 M 599.039062 634.878906 L 601.601562 637.441406 Z M 599.039062 634.878906 "/>
<path style=" stroke:none;fill-rule:nonzero;fill:rgb(97.254902%,85.490196%,12.941176%);fill-opacity:1;" d="M 601.601562 634.878906 L 604.160156 637.441406 L 601.601562 634.878906 M 371.199219 637.441406 L 373.761719 640 L 371.199219 637.441406 M 595.628906 638.292969 L 597.332031 639.148438 L 595.628906 638.292969 M 376.320312 640 L 378.878906 642.558594 Z M 376.320312 640 "/>
<path style=" stroke:none;fill-rule:nonzero;fill:rgb(15.686275%,26.666667%,51.764706%);fill-opacity:1;" d="M 378.878906 640 L 381.441406 642.558594 Z M 378.878906 640 "/>
<path style=" stroke:none;fill-rule:nonzero;fill:rgb(32.54902%,5.882353%,9.803922%);fill-opacity:1;" d="M 582.828125 640.851562 L 584.53125 641.707031 Z M 582.828125 640.851562 "/>
<path style=" stroke:none;fill-rule:nonzero;fill:rgb(97.254902%,85.490196%,12.941176%);fill-opacity:1;" d="M 588.800781 640 L 591.359375 642.558594 Z M 588.800781 640 "/>
<path style=" stroke:none;fill-rule:nonzero;fill:rgb(15.686275%,26.666667%,51.764706%);fill-opacity:1;" d="M 384 642.558594 L 386.558594 645.121094 Z M 384 642.558594 "/>
<path style=" stroke:none;fill-rule:nonzero;fill:rgb(97.254902%,85.490196%,12.941176%);fill-opacity:1;" d="M 582.828125 643.414062 L 584.53125 644.265625 L 582.828125 643.414062 M 389.121094 645.121094 L 391.679688 647.679688 Z M 389.121094 645.121094 "/>
<path style=" stroke:none;fill-rule:nonzero;fill:rgb(15.686275%,26.666667%,51.764706%);fill-opacity:1;" d="M 391.679688 645.121094 L 394.238281 647.679688 L 391.679688 645.121094 M 573.441406 645.121094 L 576 647.679688 Z M 573.441406 645.121094 "/>
<path style=" stroke:none;fill-rule:nonzero;fill:rgb(97.254902%,85.490196%,12.941176%);fill-opacity:1;" d="M 576 645.121094 L 578.558594 647.679688 L 576 645.121094 M 396.800781 647.679688 L 399.359375 650.238281 Z M 396.800781 647.679688 "/>
<path style=" stroke:none;fill-rule:nonzero;fill:rgb(15.686275%,26.666667%,51.764706%);fill-opacity:1;" d="M 399.359375 647.679688 L 401.921875 650.238281 Z M 399.359375 647.679688 "/>
<path style=" stroke:none;fill-rule:nonzero;fill:rgb(78.431373%,3.137255%,3.137255%);fill-opacity:1;" d="M 565.761719 647.679688 L 568.320312 650.238281 Z M 565.761719 647.679688 "/>
<path style=" stroke:none;fill-rule:nonzero;fill:rgb(97.254902%,85.490196%,12.941176%);fill-opacity:1;" d="M 568.320312 647.679688 L 570.878906 650.238281 L 568.320312 647.679688 M 406.1875 651.09375 L 407.890625 651.949219 Z M 406.1875 651.09375 "/>
<path style=" stroke:none;fill-rule:nonzero;fill:rgb(15.686275%,26.666667%,51.764706%);fill-opacity:1;" d="M 555.519531 650.238281 L 558.078125 652.800781 Z M 555.519531 650.238281 "/>
<path style=" stroke:none;fill-rule:nonzero;fill:rgb(97.254902%,85.490196%,12.941176%);fill-opacity:1;" d="M 559.789062 651.09375 L 561.492188 651.949219 L 559.789062 651.09375 M 414.71875 652.800781 L 417.28125 655.359375 Z M 414.71875 652.800781 "/>
<path style=" stroke:none;fill-rule:nonzero;fill:rgb(15.686275%,26.666667%,51.764706%);fill-opacity:1;" d="M 418.988281 653.652344 L 420.691406 654.507812 L 418.988281 653.652344 M 545.28125 652.800781 L 547.839844 655.359375 Z M 545.28125 652.800781 "/>
<path style=" stroke:none;fill-rule:nonzero;fill:rgb(97.254902%,85.490196%,12.941176%);fill-opacity:1;" d="M 549.546875 653.652344 L 551.253906 654.507812 L 549.546875 653.652344 M 426.667969 656.210938 L 428.371094 657.066406 Z M 426.667969 656.210938 "/>
<path style=" stroke:none;fill-rule:nonzero;fill:rgb(15.686275%,26.666667%,51.764706%);fill-opacity:1;" d="M 431.789062 656.210938 L 433.492188 657.066406 L 431.789062 656.210938 M 534.1875 656.210938 L 535.890625 657.066406 Z M 534.1875 656.210938 "/>
<path style=" stroke:none;fill-rule:nonzero;fill:rgb(97.254902%,85.490196%,12.941176%);fill-opacity:1;" d="M 539.308594 656.210938 L 541.011719 657.066406 L 539.308594 656.210938 M 442.027344 658.773438 L 443.734375 659.628906 Z M 442.027344 658.773438 "/>
<path style=" stroke:none;fill-rule:nonzero;fill:rgb(15.686275%,26.666667%,51.764706%);fill-opacity:1;" d="M 447.148438 658.773438 L 448.851562 659.628906 L 447.148438 658.773438 M 518.828125 658.773438 L 520.53125 659.628906 Z M 518.828125 658.773438 "/>
<path style=" stroke:none;fill-rule:nonzero;fill:rgb(97.254902%,85.490196%,12.941176%);fill-opacity:1;" d="M 523.949219 658.773438 L 525.652344 659.628906 L 523.949219 658.773438 M 460.800781 660.480469 L 460.800781 663.039062 L 471.039062 663.039062 Z M 460.800781 660.480469 "/>
<path style=" stroke:none;fill-rule:nonzero;fill:rgb(15.686275%,26.666667%,51.764706%);fill-opacity:1;" d="M 471.039062 660.480469 L 471.039062 663.039062 L 491.519531 663.039062 Z M 471.039062 660.480469 "/>
<path style=" stroke:none;fill-rule:nonzero;fill:rgb(97.254902%,85.490196%,12.941176%);fill-opacity:1;" d="M 491.519531 660.480469 L 491.519531 663.039062 L 504.320312 663.039062 Z M 491.519531 660.480469 "/>
<path style=" stroke:none;fill-rule:nonzero;fill:rgb(15.686275%,26.666667%,51.764706%);fill-opacity:1;" d="M 261.121094 721.921875 L 261.121094 724.480469 L 235.519531 721.921875 L 232.960938 732.160156 C 266.898438 748.492188 283.746094 713.414062 243.199219 704 L 243.199219 698.878906 L 266.238281 701.441406 L 268.800781 698.878906 L 268.800781 693.761719 C 258.210938 688.664062 223.972656 686.871094 236.027344 708.535156 C 240.570312 716.703125 253.03125 718.898438 261.121094 721.921875 Z M 261.121094 721.921875 "/>
<path style=" stroke:none;fill-rule:nonzero;fill:rgb(97.254902%,85.490196%,12.941176%);fill-opacity:1;" d="M 261.121094 688.640625 L 263.679688 691.199219 Z M 261.121094 688.640625 "/>
<path style=" stroke:none;fill-rule:nonzero;fill:rgb(15.686275%,26.666667%,51.764706%);fill-opacity:1;" d="M 514.558594 688.640625 L 514.558594 737.28125 L 524.800781 737.28125 L 524.800781 719.359375 C 537.382812 719.324219 569.4375 707.292969 546.730469 691.660156 C 538.566406 686.035156 523.980469 688.640625 514.558594 688.640625 Z M 514.558594 688.640625 "/>
<path style=" stroke:none;fill-rule:nonzero;fill:rgb(97.254902%,85.490196%,12.941176%);fill-opacity:1;" d="M 235.519531 691.199219 L 238.078125 693.761719 L 235.519531 691.199219 M 266.238281 691.199219 L 268.800781 693.761719 L 266.238281 691.199219 M 268.800781 693.761719 L 271.359375 696.320312 L 268.800781 693.761719 M 550.398438 693.761719 L 552.960938 696.320312 L 550.398438 693.761719 M 253.441406 696.320312 L 256 698.878906 Z M 253.441406 696.320312 "/>
<path style=" stroke:none;fill-rule:nonzero;fill:rgb(15.686275%,26.666667%,51.764706%);fill-opacity:1;" d="M 279.039062 696.320312 L 279.039062 737.28125 L 307.199219 737.28125 C 303.761719 726.921875 296.792969 727.160156 286.71875 727.039062 L 286.71875 721.921875 L 307.199219 721.921875 L 307.199219 711.679688 L 286.71875 711.679688 L 286.71875 706.558594 L 307.199219 706.558594 L 307.199219 696.320312 L 279.039062 696.320312 M 350.71875 732.160156 L 350.71875 727.039062 L 348.160156 724.480469 C 338.476562 726.726562 312.761719 719.761719 330.667969 708.640625 C 336.035156 705.304688 344.671875 707.394531 350.71875 706.558594 L 350.71875 701.441406 C 303.242188 681.324219 306.058594 753.648438 350.71875 732.160156 M 368.753906 698.230469 C 344.695312 707.675781 359.792969 744.640625 383.953125 735.726562 C 409.816406 726.183594 393.308594 688.589844 368.753906 698.230469 Z M 368.753906 698.230469 "/>
<path style=" stroke:none;fill-rule:nonzero;fill:rgb(97.254902%,85.490196%,12.941176%);fill-opacity:1;" d="M 384 696.320312 L 386.558594 698.878906 Z M 384 696.320312 "/>
<path style=" stroke:none;fill-rule:nonzero;fill:rgb(15.686275%,26.666667%,51.764706%);fill-opacity:1;" d="M 404.480469 696.320312 L 404.480469 737.28125 L 414.71875 737.28125 L 414.71875 714.238281 L 417.28125 714.238281 C 423.144531 726.003906 429.351562 735.148438 442.878906 737.28125 L 442.878906 696.320312 L 432.640625 696.320312 L 432.640625 719.359375 C 424.710938 708.335938 418.566406 698.511719 404.480469 696.320312 Z M 404.480469 696.320312 "/>
<path style=" stroke:none;fill-rule:nonzero;fill:rgb(97.254902%,85.490196%,12.941176%);fill-opacity:1;" d="M 450.558594 696.320312 L 453.121094 698.878906 Z M 450.558594 696.320312 "/>
<path style=" stroke:none;fill-rule:nonzero;fill:rgb(15.686275%,26.666667%,51.764706%);fill-opacity:1;" d="M 454.664062 698.953125 C 436.734375 713.105469 456.425781 750.726562 480.902344 732.820312 C 503 716.648438 473.679688 683.941406 454.664062 698.953125 Z M 454.664062 698.953125 "/>
<path style=" stroke:none;fill-rule:nonzero;fill:rgb(97.254902%,85.490196%,12.941176%);fill-opacity:1;" d="M 473.601562 696.320312 L 476.160156 698.878906 Z M 473.601562 696.320312 "/>
<path style=" stroke:none;fill-rule:nonzero;fill:rgb(15.686275%,26.666667%,51.764706%);fill-opacity:1;" d="M 550.398438 737.28125 L 591.359375 737.28125 C 589.988281 728.121094 583.097656 694.199219 568.910156 698.246094 C 557.984375 701.359375 552.671875 727.683594 550.398438 737.28125 Z M 550.398438 737.28125 "/>
<path style=" stroke:none;fill-rule:nonzero;fill:rgb(97.254902%,85.490196%,12.941176%);fill-opacity:1;" d="M 576 696.320312 L 578.558594 698.878906 L 576 696.320312 M 596.480469 696.320312 L 599.039062 698.878906 Z M 596.480469 696.320312 "/>
<path style=" stroke:none;fill-rule:nonzero;fill:rgb(15.686275%,26.666667%,51.764706%);fill-opacity:1;" d="M 606.71875 737.28125 L 606.71875 724.480469 L 629.761719 737.28125 C 627.769531 727.234375 633.023438 715.894531 630.144531 706.839844 C 618.691406 670.808594 570.722656 725.332031 606.71875 737.28125 Z M 606.71875 737.28125 "/>
<path style=" stroke:none;fill-rule:nonzero;fill:rgb(97.254902%,85.490196%,12.941176%);fill-opacity:1;" d="M 622.078125 696.320312 L 624.640625 698.878906 L 622.078125 696.320312 M 634.878906 696.320312 L 637.441406 698.878906 Z M 634.878906 696.320312 "/>
<path style=" stroke:none;fill-rule:nonzero;fill:rgb(15.686275%,26.666667%,51.764706%);fill-opacity:1;" d="M 634.878906 698.878906 L 634.878906 704 L 647.679688 706.558594 L 647.679688 737.28125 L 655.359375 737.28125 L 655.359375 706.558594 L 668.160156 706.558594 L 668.160156 696.320312 L 634.878906 698.878906 M 673.28125 696.320312 L 673.28125 737.28125 L 683.519531 737.28125 L 683.519531 714.238281 L 686.078125 714.238281 C 691.945312 726.003906 698.152344 735.148438 711.679688 737.28125 L 711.679688 696.320312 L 701.441406 696.320312 L 701.441406 719.359375 C 693.6875 708.015625 687.527344 698.523438 673.28125 696.320312 Z M 673.28125 696.320312 "/>
<path style=" stroke:none;fill-rule:nonzero;fill:rgb(97.254902%,85.490196%,12.941176%);fill-opacity:1;" d="M 683.519531 696.320312 L 686.078125 698.878906 L 683.519531 696.320312 M 719.359375 696.320312 L 721.921875 698.878906 Z M 719.359375 696.320312 "/>
<path style=" stroke:none;fill-rule:nonzero;fill:rgb(15.686275%,26.666667%,51.764706%);fill-opacity:1;" d="M 750.078125 737.28125 L 750.078125 727.039062 L 729.601562 727.039062 L 729.601562 721.921875 C 739.671875 721.800781 746.640625 722.039062 750.078125 711.679688 L 729.601562 711.679688 L 729.601562 706.558594 L 750.078125 706.558594 L 750.078125 696.320312 C 742.585938 696.320312 729.730469 693.988281 723.464844 698.953125 C 716.707031 704.304688 716.707031 729.296875 723.464844 734.648438 C 729.730469 739.613281 742.585938 737.28125 750.078125 737.28125 M 757.761719 696.320312 L 757.761719 737.28125 L 768 737.28125 L 768 724.480469 L 791.039062 737.28125 C 781.875 709.515625 796.742188 696.324219 757.761719 696.320312 Z M 757.761719 696.320312 "/>
<path style=" stroke:none;fill-rule:nonzero;fill:rgb(97.254902%,85.490196%,12.941176%);fill-opacity:1;" d="M 276.480469 698.878906 L 276.480469 734.71875 L 279.039062 734.71875 L 276.480469 698.878906 M 320 698.878906 L 322.558594 701.441406 L 320 698.878906 M 345.601562 698.878906 L 348.160156 701.441406 L 345.601562 698.878906 M 389.121094 698.878906 L 391.679688 701.441406 Z M 389.121094 698.878906 "/>
<path style=" stroke:none;fill-rule:nonzero;fill:rgb(99.607843%,99.607843%,99.215686%);fill-opacity:1;" d="M 524.800781 698.878906 L 524.800781 709.121094 L 542.71875 709.121094 L 542.71875 698.878906 Z M 524.800781 698.878906 "/>
<path style=" stroke:none;fill-rule:nonzero;fill:rgb(97.254902%,85.490196%,12.941176%);fill-opacity:1;" d="M 391.679688 701.441406 L 394.238281 704 L 391.679688 701.441406 M 483.839844 701.441406 L 486.398438 704 L 483.839844 701.441406 M 553.8125 703.148438 L 554.667969 704.851562 L 553.8125 703.148438 M 578.558594 701.441406 L 581.121094 704 L 578.558594 701.441406 M 314.878906 704 L 317.441406 706.558594 L 314.878906 704 M 330.238281 704 L 332.800781 706.558594 Z M 330.238281 704 "/>
<path style=" stroke:none;fill-rule:nonzero;fill:rgb(99.607843%,99.607843%,99.215686%);fill-opacity:1;" d="M 374.089844 706.484375 C 362.261719 709.433594 366.050781 730.230469 378.550781 727.113281 C 390.378906 724.164062 386.589844 703.367188 374.089844 706.484375 Z M 374.089844 706.484375 "/>
<path style=" stroke:none;fill-rule:nonzero;fill:rgb(97.254902%,85.490196%,12.941176%);fill-opacity:1;" d="M 524.800781 704 L 527.359375 706.558594 L 524.800781 704 M 560.640625 704 L 563.199219 706.558594 L 560.640625 704 M 634.878906 704 L 637.441406 706.558594 L 634.878906 704 M 232.960938 706.558594 L 235.519531 709.121094 L 232.960938 706.558594 M 256 706.558594 L 258.558594 709.121094 L 256 706.558594 M 340.480469 706.558594 L 343.039062 709.121094 L 340.480469 706.558594 M 348.160156 706.558594 L 350.71875 709.121094 L 348.160156 706.558594 M 355.839844 706.558594 L 358.398438 709.121094 Z M 355.839844 706.558594 "/>
<path style=" stroke:none;fill-rule:nonzero;fill:rgb(99.607843%,99.607843%,99.215686%);fill-opacity:1;" d="M 460.800781 706.558594 L 460.800781 727.039062 C 482.214844 726.335938 482.21875 707.265625 460.800781 706.558594 M 606.71875 706.558594 L 606.71875 714.238281 L 622.078125 711.679688 Z M 606.71875 706.558594 "/>
<path style=" stroke:none;fill-rule:nonzero;fill:rgb(97.254902%,85.490196%,12.941176%);fill-opacity:1;" d="M 619.519531 706.558594 L 622.078125 709.121094 L 619.519531 706.558594 M 655.359375 706.558594 L 657.921875 709.121094 Z M 655.359375 706.558594 "/>
<path style=" stroke:none;fill-rule:nonzero;fill:rgb(99.607843%,99.607843%,99.215686%);fill-opacity:1;" d="M 768 706.558594 L 768 714.238281 L 780.800781 714.238281 L 780.800781 706.558594 Z M 768 706.558594 "/>
<path style=" stroke:none;fill-rule:nonzero;fill:rgb(97.254902%,85.490196%,12.941176%);fill-opacity:1;" d="M 791.890625 708.265625 L 792.746094 709.972656 L 791.890625 708.265625 M 527.359375 709.121094 L 527.359375 711.679688 L 535.039062 711.679688 Z M 527.359375 709.121094 "/>
<path style=" stroke:none;fill-rule:nonzero;fill:rgb(99.607843%,99.607843%,99.215686%);fill-opacity:1;" d="M 570.878906 709.121094 L 565.761719 721.921875 L 576 721.921875 Z M 570.878906 709.121094 "/>
<path style=" stroke:none;fill-rule:nonzero;fill:rgb(97.254902%,85.490196%,12.941176%);fill-opacity:1;" d="M 780.800781 709.121094 L 783.359375 711.679688 L 780.800781 709.121094 M 266.238281 711.679688 L 268.800781 714.238281 L 266.238281 711.679688 M 322.558594 711.679688 L 325.121094 714.238281 L 322.558594 711.679688 M 550.398438 711.679688 L 552.960938 714.238281 L 550.398438 711.679688 M 387.414062 715.949219 L 388.265625 717.652344 L 387.414062 715.949219 M 583.679688 714.238281 L 586.238281 716.800781 L 583.679688 714.238281 M 655.359375 714.238281 L 655.359375 737.28125 L 657.921875 737.28125 L 655.359375 714.238281 M 250.878906 716.800781 L 253.441406 719.359375 L 250.878906 716.800781 M 417.28125 716.800781 L 419.839844 719.359375 L 417.28125 716.800781 M 555.519531 716.800781 L 558.078125 719.359375 L 555.519531 716.800781 M 788.480469 716.800781 L 791.039062 719.359375 L 788.480469 716.800781 M 322.558594 719.359375 L 325.121094 721.921875 L 322.558594 719.359375 M 396.800781 719.359375 L 399.359375 721.921875 L 396.800781 719.359375 M 524.800781 719.359375 L 527.359375 721.921875 L 524.800781 719.359375 M 747.519531 719.359375 L 750.078125 721.921875 L 747.519531 719.359375 M 232.960938 724.480469 L 235.519531 727.039062 L 232.960938 724.480469 M 348.160156 724.480469 L 350.71875 727.039062 L 348.160156 724.480469 M 355.839844 724.480469 L 358.398438 727.039062 L 355.839844 724.480469 M 250.878906 727.039062 L 253.441406 729.601562 L 250.878906 727.039062 M 304.640625 727.039062 L 307.199219 729.601562 L 304.640625 727.039062 M 314.878906 727.039062 L 317.441406 729.601562 L 314.878906 727.039062 M 378.878906 727.039062 L 381.441406 729.601562 L 378.878906 727.039062 M 424.960938 727.039062 L 427.519531 729.601562 L 424.960938 727.039062 M 588.800781 727.039062 L 591.359375 729.601562 L 588.800781 727.039062 M 614.398438 727.039062 L 616.960938 729.601562 L 614.398438 727.039062 M 693.761719 727.039062 L 696.320312 729.601562 L 693.761719 727.039062 M 744.960938 727.039062 L 747.519531 729.601562 L 744.960938 727.039062 M 785.921875 727.039062 L 788.480469 729.601562 L 785.921875 727.039062 M 358.398438 729.601562 L 360.960938 732.160156 L 358.398438 729.601562 M 391.679688 729.601562 L 394.238281 732.160156 L 391.679688 729.601562 M 550.398438 729.601562 L 552.960938 732.160156 L 550.398438 729.601562 M 627.199219 729.601562 L 629.761719 732.160156 L 627.199219 729.601562 M 389.121094 732.160156 L 391.679688 734.71875 L 389.121094 732.160156 M 524.800781 732.160156 L 527.359375 734.71875 L 524.800781 732.160156 M 560.640625 732.160156 L 563.199219 734.71875 L 560.640625 732.160156 M 592.210938 733.867188 L 593.066406 735.574219 L 592.210938 733.867188 M 261.121094 734.71875 L 263.679688 737.28125 L 261.121094 734.71875 M 366.078125 734.71875 L 368.640625 737.28125 L 366.078125 734.71875 M 450.558594 734.71875 L 453.121094 737.28125 L 450.558594 734.71875 M 596.480469 734.71875 L 599.039062 737.28125 L 596.480469 734.71875 M 629.761719 734.71875 L 632.320312 737.28125 L 629.761719 734.71875 M 719.359375 734.71875 L 721.921875 737.28125 L 719.359375 734.71875 M 320 760.320312 L 322.558594 762.878906 Z M 320 760.320312 "/>
<path style=" stroke:none;fill-rule:nonzero;fill:rgb(15.686275%,26.666667%,51.764706%);fill-opacity:1;" d="M 322.558594 801.28125 L 325.121094 801.28125 L 325.121094 783.359375 L 345.601562 783.359375 L 345.601562 778.238281 L 325.121094 778.238281 L 325.121094 765.441406 L 345.601562 765.441406 L 345.601562 760.320312 C 318.53125 760.339844 315.238281 776.507812 322.558594 801.28125 Z M 322.558594 801.28125 "/>
<path style=" stroke:none;fill-rule:nonzero;fill:rgb(97.254902%,85.490196%,12.941176%);fill-opacity:1;" d="M 346.453125 762.027344 L 347.308594 763.734375 L 346.453125 762.027344 M 442.878906 760.320312 L 445.441406 762.878906 Z M 442.878906 760.320312 "/>
<path style=" stroke:none;fill-rule:nonzero;fill:rgb(15.686275%,26.666667%,51.764706%);fill-opacity:1;" d="M 445.441406 801.28125 L 448 801.28125 L 448 783.359375 L 468.480469 783.359375 L 468.480469 778.238281 L 448 778.238281 L 448 765.441406 L 468.480469 765.441406 L 468.480469 760.320312 C 441.410156 760.339844 438.117188 776.507812 445.441406 801.28125 M 563.199219 760.320312 L 563.199219 773.121094 C 534.605469 767.859375 538.003906 799.152344 565.761719 801.28125 C 569.445312 788.820312 571.339844 771.0625 563.199219 760.320312 Z M 563.199219 760.320312 "/>
<path style=" stroke:none;fill-rule:nonzero;fill:rgb(97.254902%,85.490196%,12.941176%);fill-opacity:1;" d="M 565.761719 760.320312 L 568.320312 762.878906 Z M 565.761719 760.320312 "/>
<path style=" stroke:none;fill-rule:nonzero;fill:rgb(15.686275%,26.666667%,51.764706%);fill-opacity:1;" d="M 619.519531 760.320312 L 619.519531 801.28125 L 642.558594 798.71875 L 642.558594 796.160156 L 624.640625 796.160156 Z M 619.519531 760.320312 "/>
<path style=" stroke:none;fill-rule:nonzero;fill:rgb(97.254902%,85.490196%,12.941176%);fill-opacity:1;" d="M 622.078125 760.320312 L 624.640625 762.878906 L 622.078125 760.320312 M 683.519531 760.320312 L 686.078125 762.878906 Z M 683.519531 760.320312 "/>
<path style=" stroke:none;fill-rule:nonzero;fill:rgb(15.686275%,26.666667%,51.764706%);fill-opacity:1;" d="M 686.078125 760.320312 L 683.519531 773.121094 C 670.363281 770.683594 653.527344 783.832031 667.144531 796.785156 C 672.335938 801.722656 682.027344 800.480469 688.640625 801.28125 L 686.078125 760.320312 M 412.160156 762.878906 L 407.039062 773.121094 L 422.398438 801.28125 C 418.28125 790.527344 416.589844 783.582031 422.398438 773.121094 Z M 412.160156 762.878906 "/>
<path style=" stroke:none;fill-rule:nonzero;fill:rgb(97.254902%,85.490196%,12.941176%);fill-opacity:1;" d="M 414.71875 762.878906 L 417.28125 765.441406 L 414.71875 762.878906 M 468.480469 762.878906 L 471.039062 765.441406 L 468.480469 762.878906 M 616.960938 762.878906 L 619.519531 765.441406 Z M 616.960938 762.878906 "/>
<path style=" stroke:none;fill-rule:nonzero;fill:rgb(32.54902%,5.882353%,9.803922%);fill-opacity:1;" d="M 620.371094 764.585938 L 621.226562 766.292969 Z M 620.371094 764.585938 "/>
<path style=" stroke:none;fill-rule:nonzero;fill:rgb(15.686275%,26.666667%,51.764706%);fill-opacity:1;" d="M 647.679688 762.878906 L 642.558594 773.121094 L 657.921875 801.28125 C 653.800781 790.527344 652.113281 783.582031 657.921875 773.121094 Z M 647.679688 762.878906 "/>
<path style=" stroke:none;fill-rule:nonzero;fill:rgb(97.254902%,85.490196%,12.941176%);fill-opacity:1;" d="M 650.238281 762.878906 L 652.800781 765.441406 L 650.238281 762.878906 M 325.121094 765.441406 L 327.679688 768 L 325.121094 765.441406 M 448 765.441406 L 450.558594 768 Z M 448 765.441406 "/>
<path style=" stroke:none;fill-rule:nonzero;fill:rgb(32.54902%,5.882353%,9.803922%);fill-opacity:1;" d="M 647.679688 765.441406 L 650.238281 768 Z M 647.679688 765.441406 "/>
<path style=" stroke:none;fill-rule:nonzero;fill:rgb(15.686275%,26.666667%,51.764706%);fill-opacity:1;" d="M 353.28125 778.238281 L 371.199219 783.359375 C 344.050781 783.683594 354.226562 799.40625 376.320312 798.71875 C 375.660156 786.605469 368.152344 757.277344 353.28125 778.238281 Z M 353.28125 778.238281 "/>
<path style=" stroke:none;fill-rule:nonzero;fill:rgb(97.254902%,85.490196%,12.941176%);fill-opacity:1;" d="M 386.558594 770.558594 L 389.121094 773.121094 Z M 386.558594 770.558594 "/>
<path style=" stroke:none;fill-rule:nonzero;fill:rgb(15.686275%,26.666667%,51.764706%);fill-opacity:1;" d="M 384 773.121094 L 384 775.679688 L 401.921875 778.238281 Z M 384 773.121094 "/>
<path style=" stroke:none;fill-rule:nonzero;fill:rgb(97.254902%,85.490196%,12.941176%);fill-opacity:1;" d="M 396.800781 770.558594 L 399.359375 773.121094 L 396.800781 770.558594 M 407.039062 770.558594 L 409.601562 773.121094 L 407.039062 770.558594 M 419.839844 770.558594 L 422.398438 773.121094 L 419.839844 770.558594 M 481.28125 770.558594 L 483.839844 773.121094 Z M 481.28125 770.558594 "/>
<path style=" stroke:none;fill-rule:nonzero;fill:rgb(15.686275%,26.666667%,51.764706%);fill-opacity:1;" d="M 476.160156 775.679688 L 478.71875 780.800781 C 468.007812 790.589844 484.882812 805.9375 495.824219 797.136719 C 512.933594 783.371094 491.042969 768.875 476.160156 775.679688 Z M 476.160156 775.679688 "/>
<path style=" stroke:none;fill-rule:nonzero;fill:rgb(97.254902%,85.490196%,12.941176%);fill-opacity:1;" d="M 491.519531 770.558594 L 494.078125 773.121094 L 491.519531 770.558594 M 514.558594 770.558594 L 517.121094 773.121094 Z M 514.558594 770.558594 "/>
<path style=" stroke:none;fill-rule:nonzero;fill:rgb(15.686275%,26.666667%,51.764706%);fill-opacity:1;" d="M 517.394531 772.738281 C 501.417969 777.640625 508.355469 804.117188 524.660156 799.457031 C 541.066406 794.765625 534.125 767.609375 517.394531 772.738281 Z M 517.394531 772.738281 "/>
<path style=" stroke:none;fill-rule:nonzero;fill:rgb(97.254902%,85.490196%,12.941176%);fill-opacity:1;" d="M 524.800781 770.558594 L 527.359375 773.121094 L 524.800781 770.558594 M 547.839844 770.558594 L 550.398438 773.121094 L 547.839844 770.558594 M 578.558594 770.558594 L 581.121094 773.121094 Z M 578.558594 770.558594 "/>
<path style=" stroke:none;fill-rule:nonzero;fill:rgb(15.686275%,26.666667%,51.764706%);fill-opacity:1;" d="M 573.441406 778.238281 L 573.441406 780.800781 L 578.558594 785.921875 L 581.121094 785.921875 L 578.558594 778.238281 L 593.921875 778.238281 C 587.660156 769.488281 580.886719 771.871094 573.441406 778.238281 Z M 573.441406 778.238281 "/>
<path style=" stroke:none;fill-rule:nonzero;fill:rgb(97.254902%,85.490196%,12.941176%);fill-opacity:1;" d="M 588.800781 770.558594 L 591.359375 773.121094 L 588.800781 770.558594 M 616.960938 770.558594 L 619.519531 773.121094 L 616.960938 770.558594 M 642.558594 770.558594 L 645.121094 773.121094 L 642.558594 770.558594 M 655.359375 770.558594 L 657.921875 773.121094 L 655.359375 770.558594 M 668.160156 770.558594 L 670.71875 773.121094 L 668.160156 770.558594 M 678.398438 770.558594 L 680.960938 773.121094 L 678.398438 770.558594 M 496.640625 773.121094 L 499.199219 775.679688 L 496.640625 773.121094 M 325.121094 775.679688 L 327.679688 778.238281 L 325.121094 775.679688 M 381.441406 775.679688 L 384 778.238281 Z M 381.441406 775.679688 "/>
<path style=" stroke:none;fill-rule:nonzero;fill:rgb(32.54902%,5.882353%,9.803922%);fill-opacity:1;" d="M 384 775.679688 L 386.558594 778.238281 Z M 384 775.679688 "/>
<path style=" stroke:none;fill-rule:nonzero;fill:rgb(97.254902%,85.490196%,12.941176%);fill-opacity:1;" d="M 386.558594 775.679688 L 389.121094 778.238281 Z M 386.558594 775.679688 "/>
<path style=" stroke:none;fill-rule:nonzero;fill:rgb(99.607843%,99.607843%,99.215686%);fill-opacity:1;" d="M 484.554688 778.460938 C 476.753906 783.261719 481.644531 797.65625 490.746094 793.148438 C 499.523438 788.800781 493.976562 772.664062 484.554688 778.460938 Z M 484.554688 778.460938 "/>
<path style=" stroke:none;fill-rule:nonzero;fill:rgb(32.54902%,5.882353%,9.803922%);fill-opacity:1;" d="M 512 775.679688 L 514.558594 778.238281 Z M 512 775.679688 "/>
<path style=" stroke:none;fill-rule:nonzero;fill:rgb(99.607843%,99.607843%,99.215686%);fill-opacity:1;" d="M 518.128906 778.460938 C 509.332031 784.0625 516.902344 799.503906 525.816406 793.378906 C 533.046875 788.410156 526.953125 772.839844 518.128906 778.460938 M 551.472656 778.589844 C 542.371094 783.878906 550.042969 799.097656 559.105469 792.992188 C 566.628906 787.925781 560.324219 773.445312 551.472656 778.589844 Z M 551.472656 778.589844 "/>
<path style=" stroke:none;fill-rule:nonzero;fill:rgb(97.254902%,85.490196%,12.941176%);fill-opacity:1;" d="M 558.078125 775.679688 L 560.640625 778.238281 L 558.078125 775.679688 M 573.441406 775.679688 L 576 778.238281 L 573.441406 775.679688 M 593.921875 775.679688 L 596.480469 778.238281 L 593.921875 775.679688 M 663.039062 775.679688 L 665.601562 778.238281 Z M 663.039062 775.679688 "/>
<path style=" stroke:none;fill-rule:nonzero;fill:rgb(99.607843%,99.607843%,99.215686%);fill-opacity:1;" d="M 672.21875 778.460938 C 665.070312 783.511719 670.894531 799.4375 679.460938 793.378906 C 686.609375 788.328125 680.785156 772.402344 672.21875 778.460938 Z M 672.21875 778.460938 "/>
<path style=" stroke:none;fill-rule:nonzero;fill:rgb(97.254902%,85.490196%,12.941176%);fill-opacity:1;" d="M 373.761719 778.238281 L 376.320312 780.800781 Z M 373.761719 778.238281 "/>
<path style=" stroke:none;fill-rule:nonzero;fill:rgb(15.686275%,26.666667%,51.764706%);fill-opacity:1;" d="M 381.441406 778.238281 L 399.359375 796.160156 L 381.441406 793.601562 L 381.441406 798.71875 C 387.472656 798.503906 393.023438 803.738281 399.359375 800 C 415.898438 790.238281 388.59375 780.121094 381.441406 778.238281 Z M 381.441406 778.238281 "/>
<path style=" stroke:none;fill-rule:nonzero;fill:rgb(97.254902%,85.490196%,12.941176%);fill-opacity:1;" d="M 473.601562 778.238281 L 476.160156 780.800781 Z M 473.601562 778.238281 "/>
<path style=" stroke:none;fill-rule:nonzero;fill:rgb(32.54902%,5.882353%,9.803922%);fill-opacity:1;" d="M 476.160156 778.238281 L 478.71875 780.800781 Z M 476.160156 778.238281 "/>
<path style=" stroke:none;fill-rule:nonzero;fill:rgb(97.254902%,85.490196%,12.941176%);fill-opacity:1;" d="M 494.078125 778.238281 L 496.640625 780.800781 L 494.078125 778.238281 M 527.359375 778.238281 L 529.921875 780.800781 L 527.359375 778.238281 M 616.960938 778.238281 L 619.519531 780.800781 L 616.960938 778.238281 M 358.398438 780.800781 L 358.398438 783.359375 L 366.078125 783.359375 L 358.398438 780.800781 M 381.441406 780.800781 L 384 783.359375 L 381.441406 780.800781 M 512 780.800781 L 514.558594 783.359375 L 512 780.800781 M 540.160156 780.800781 L 542.71875 783.359375 L 540.160156 780.800781 M 545.28125 780.800781 L 547.839844 783.359375 L 545.28125 780.800781 M 573.441406 780.800781 L 578.558594 785.921875 Z M 573.441406 780.800781 "/>
<path style=" stroke:none;fill-rule:nonzero;fill:rgb(32.54902%,5.882353%,9.803922%);fill-opacity:1;" d="M 576 780.800781 L 578.558594 783.359375 Z M 576 780.800781 "/>
<path style=" stroke:none;fill-rule:nonzero;fill:rgb(97.254902%,85.490196%,12.941176%);fill-opacity:1;" d="M 396.800781 783.359375 L 399.359375 785.921875 Z M 396.800781 783.359375 "/>
<path style=" stroke:none;fill-rule:nonzero;fill:rgb(32.54902%,5.882353%,9.803922%);fill-opacity:1;" d="M 581.121094 783.359375 L 583.679688 785.921875 Z M 581.121094 783.359375 "/>
<path style=" stroke:none;fill-rule:nonzero;fill:rgb(15.686275%,26.666667%,51.764706%);fill-opacity:1;" d="M 583.679688 783.359375 L 591.359375 796.160156 L 576 793.601562 C 585.996094 808.945312 604.207031 789.613281 583.679688 783.359375 Z M 583.679688 783.359375 "/>
<path style=" stroke:none;fill-rule:nonzero;fill:rgb(97.254902%,85.490196%,12.941176%);fill-opacity:1;" d="M 660.480469 783.359375 L 663.039062 785.921875 L 660.480469 783.359375 M 666.453125 785.066406 L 667.308594 786.773438 Z M 666.453125 785.066406 "/>
<path style=" stroke:none;fill-rule:nonzero;fill:rgb(99.607843%,99.607843%,99.215686%);fill-opacity:1;" d="M 355.839844 788.480469 L 355.839844 793.601562 L 371.199219 793.601562 L 371.199219 788.480469 Z M 355.839844 788.480469 "/>
<path style=" stroke:none;fill-rule:nonzero;fill:rgb(97.254902%,85.490196%,12.941176%);fill-opacity:1;" d="M 581.121094 785.921875 L 583.679688 788.480469 L 581.121094 785.921875 M 373.761719 788.480469 L 376.320312 791.039062 L 373.761719 788.480469 M 588.800781 788.480469 L 591.359375 791.039062 L 588.800781 788.480469 M 617.8125 790.1875 L 618.667969 791.890625 L 617.8125 790.1875 M 473.601562 791.039062 L 476.160156 793.601562 L 473.601562 791.039062 M 494.078125 791.039062 L 496.640625 793.601562 L 494.078125 791.039062 M 540.160156 791.039062 L 542.71875 793.601562 L 540.160156 791.039062 M 350.71875 793.601562 L 353.28125 796.160156 L 350.71875 793.601562 M 355.839844 793.601562 L 358.398438 796.160156 L 355.839844 793.601562 M 368.640625 793.601562 L 371.199219 796.160156 L 368.640625 793.601562 M 481.28125 793.601562 L 483.839844 796.160156 L 481.28125 793.601562 M 491.519531 793.601562 L 494.078125 796.160156 Z M 491.519531 793.601562 "/>
<path style=" stroke:none;fill-rule:nonzero;fill:rgb(32.54902%,5.882353%,9.803922%);fill-opacity:1;" d="M 512 793.601562 L 514.558594 796.160156 Z M 512 793.601562 "/>
<path style=" stroke:none;fill-rule:nonzero;fill:rgb(97.254902%,85.490196%,12.941176%);fill-opacity:1;" d="M 514.558594 793.601562 L 517.121094 796.160156 L 514.558594 793.601562 M 558.078125 793.601562 L 560.640625 796.160156 L 558.078125 793.601562 M 574.292969 795.308594 L 575.148438 797.011719 L 574.292969 795.308594 M 696.320312 793.601562 L 698.878906 796.160156 Z M 696.320312 793.601562 "/>
<path style=" stroke:none;fill-rule:nonzero;fill:rgb(15.686275%,26.666667%,51.764706%);fill-opacity:1;" d="M 698.878906 793.601562 L 696.320312 796.160156 L 696.320312 798.71875 L 698.878906 801.28125 L 701.441406 801.28125 L 704 798.71875 L 704 796.160156 Z M 698.878906 793.601562 "/>
<path style=" stroke:none;fill-rule:nonzero;fill:rgb(32.54902%,5.882353%,9.803922%);fill-opacity:1;" d="M 322.558594 796.160156 L 325.121094 798.71875 Z M 322.558594 796.160156 "/>
<path style=" stroke:none;fill-rule:nonzero;fill:rgb(97.254902%,85.490196%,12.941176%);fill-opacity:1;" d="M 360.960938 796.160156 L 363.519531 798.71875 Z M 360.960938 796.160156 "/>
<path style=" stroke:none;fill-rule:nonzero;fill:rgb(32.54902%,5.882353%,9.803922%);fill-opacity:1;" d="M 371.199219 796.160156 L 373.761719 798.71875 L 371.199219 796.160156 M 384 796.160156 L 386.558594 798.71875 Z M 384 796.160156 "/>
<path style=" stroke:none;fill-rule:nonzero;fill:rgb(97.254902%,85.490196%,12.941176%);fill-opacity:1;" d="M 422.398438 796.160156 L 424.960938 798.71875 L 422.398438 796.160156 M 496.640625 796.160156 L 499.199219 798.71875 L 496.640625 796.160156 M 529.921875 796.160156 L 532.480469 798.71875 L 529.921875 796.160156 M 616.960938 796.160156 L 619.519531 798.71875 Z M 616.960938 796.160156 "/>
<path style=" stroke:none;fill-rule:nonzero;fill:rgb(32.54902%,5.882353%,9.803922%);fill-opacity:1;" d="M 619.519531 796.160156 L 622.078125 798.71875 Z M 619.519531 796.160156 "/>
<path style=" stroke:none;fill-rule:nonzero;fill:rgb(97.254902%,85.490196%,12.941176%);fill-opacity:1;" d="M 657.921875 796.160156 L 660.480469 798.71875 Z M 657.921875 796.160156 "/>
<path style=" stroke:none;fill-rule:nonzero;fill:rgb(32.54902%,5.882353%,9.803922%);fill-opacity:1;" d="M 698.878906 796.160156 L 701.441406 798.71875 Z M 698.878906 796.160156 "/>
<path style=" stroke:none;fill-rule:nonzero;fill:rgb(97.254902%,85.490196%,12.941176%);fill-opacity:1;" d="M 320 798.71875 L 322.558594 801.28125 L 320 798.71875 M 355.839844 798.71875 L 358.398438 801.28125 L 355.839844 798.71875 M 366.078125 798.71875 L 368.640625 801.28125 L 366.078125 798.71875 M 372.90625 799.574219 L 374.613281 800.425781 L 372.90625 799.574219 M 442.878906 798.71875 L 445.441406 801.28125 L 442.878906 798.71875 M 481.28125 798.71875 L 483.839844 801.28125 L 481.28125 798.71875 M 514.558594 798.71875 L 517.121094 801.28125 L 514.558594 798.71875 M 547.839844 798.71875 L 550.398438 801.28125 L 547.839844 798.71875 M 565.761719 798.71875 L 568.320312 801.28125 L 565.761719 798.71875 M 640 798.71875 L 642.558594 801.28125 L 640 798.71875 M 668.160156 798.71875 L 670.71875 801.28125 L 668.160156 798.71875 M 678.398438 798.71875 L 680.960938 801.28125 L 678.398438 798.71875 M 683.519531 798.71875 L 686.078125 801.28125 L 683.519531 798.71875 M 696.320312 798.71875 L 698.878906 801.28125 Z M 696.320312 798.71875 "/>
</g>
</svg>
